<?xml version="1.0" encoding="utf-8"?>
<!-- Generator: Adobe Illustrator 19.0.0, SVG Export Plug-In . SVG Version: 6.00 Build 0)  -->
<svg version="1.1" id="Layer_1" xmlns="http://www.w3.org/2000/svg" xmlns:xlink="http://www.w3.org/1999/xlink" x="0px" y="0px"
	 viewBox="5857 -6815.4 12326.1 14422.4" style="enable-background:new 5857 -6815.4 12326.1 14422.4;" xml:space="preserve">
<style type="text/css">
	.st0{fill:#F3F4F4;}
	.st1{fill:url(#SVGID_1_);}
	.st2{fill:url(#SVGID_2_);}
	.st3{fill:url(#SVGID_3_);}
	.st4{fill:#D3D5D5;}
	.st5{fill:#ABADB0;}
	.st6{fill:#F26522;}
	.st7{fill:#F7941E;}
	.st8{fill:#FFCB07;}
	.st9{fill:url(#SVGID_4_);}
	.st10{fill:url(#SVGID_5_);}
	.st11{fill:url(#SVGID_6_);}
	.st12{fill:url(#SVGID_7_);}
	.st13{fill:url(#SVGID_8_);}
	.st14{fill:url(#SVGID_9_);}
	.st15{fill:url(#SVGID_10_);}
	.st16{fill:url(#SVGID_11_);}
	.st17{fill:url(#SVGID_12_);}
	.st18{fill:url(#SVGID_13_);}
	.st19{fill:#8A8D8F;}
	.st20{fill:url(#SVGID_14_);}
	.st21{fill:#96989B;}
	.st22{fill:url(#SVGID_15_);}
	.st23{fill:#FAA91D;}
	.st24{fill:url(#SVGID_16_);}
	.st25{fill:url(#SVGID_17_);}
	.st26{fill:url(#SVGID_18_);}
	.st27{fill:#FFDE3A;}
	.st28{fill:url(#SVGID_19_);}
	.st29{fill:url(#SVGID_20_);}
	.st30{fill:url(#SVGID_21_);}
	.st31{fill:url(#SVGID_22_);}
	.st32{fill:url(#SVGID_23_);}
	.st33{fill:url(#SVGID_24_);}
	.st34{fill:url(#SVGID_25_);}
	.st35{fill:url(#SVGID_26_);}
	.st36{fill:url(#SVGID_27_);}
	.st37{fill:url(#SVGID_28_);}
	.st38{fill:url(#SVGID_29_);}
	.st39{fill:url(#SVGID_30_);}
	.st40{fill:url(#SVGID_31_);}
	.st41{fill:url(#SVGID_32_);}
	.st42{fill:url(#SVGID_33_);}
	.st43{fill:url(#SVGID_34_);}
	.st44{enable-background:new    ;}
	.st45{fill:url(#SVGID_35_);}
	.st46{fill:url(#SVGID_36_);}
	.st47{fill:url(#SVGID_37_);}
	.st48{fill:url(#SVGID_38_);}
	.st49{fill:url(#SVGID_39_);}
	.st50{fill:url(#SVGID_40_);}
	.st51{fill:url(#SVGID_41_);}
	.st52{fill:none;stroke:#F26522;stroke-width:62.1454;stroke-miterlimit:10;}
</style>
<rect x="16234.2" y="3805.4" class="st0" width="358.6" height="3416.4"/>
<rect x="8973" y="-5697.2" class="st0" width="3540.2" height="2451.4"/>
<path class="st0" d="M12872.4-43.4v3505.6c361.2,0,3240,0,3710.3,0V-43.4H12872.4z"/>
<linearGradient id="SVGID_1_" gradientUnits="userSpaceOnUse" x1="9612.3066" y1="4036.7068" x2="9989.9463" y2="4036.7068" gradientTransform="matrix(0.9884 0.1522 0.1522 -0.9884 1119.13 -2081.6008)">
	<stop  offset="4.166670e-03" style="stop-color:#D0D2D3"/>
	<stop  offset="0.1806" style="stop-color:#E3E4E4"/>
	<stop  offset="0.4042" style="stop-color:#F3F3F3"/>
	<stop  offset="0.6572" style="stop-color:#FCFCFC"/>
	<stop  offset="1" style="stop-color:#FFFFFF"/>
</linearGradient>
<polygon class="st1" points="11284.3,-4933 11217.8,-4501.2 11217.9,-4501.2 11557.6,-4226.5 11557.6,-4226.5 11557.6,-4226.5 
	11624.1,-4658.3 11624.1,-4658.3 11284.3,-4933 "/>
<linearGradient id="SVGID_2_" gradientUnits="userSpaceOnUse" x1="14480.3994" y1="7903.9214" x2="14756.6318" y2="7729.4585" gradientTransform="matrix(0.9305 -0.3664 -0.3664 -0.9305 -802.1077 8148.8989)">
	<stop  offset="4.166670e-03" style="stop-color:#D0D2D3"/>
	<stop  offset="0.1806" style="stop-color:#E3E4E4"/>
	<stop  offset="0.4042" style="stop-color:#F3F3F3"/>
	<stop  offset="0.6572" style="stop-color:#FCFCFC"/>
	<stop  offset="1" style="stop-color:#FFFFFF"/>
</linearGradient>
<polygon class="st2" points="10020.2,-4324.1 10020.2,-4324.1 10020.2,-4324.1 10020.3,-4324.2 10223.5,-4578.8 9900.6,-4628.2 
	9900.5,-4628.2 9900.5,-4628.2 9900.5,-4628.2 9900.4,-4628.2 9900.4,-4628.2 9697.1,-4373.6 "/>
<linearGradient id="SVGID_3_" gradientUnits="userSpaceOnUse" x1="14304.0088" y1="7548.9473" x2="14586.5723" y2="7548.9473" gradientTransform="matrix(0.9305 -0.3664 -0.3664 -0.9305 -802.1077 8148.8989)">
	<stop  offset="4.166670e-03" style="stop-color:#D0D2D3"/>
	<stop  offset="0.1806" style="stop-color:#E3E4E4"/>
	<stop  offset="0.4042" style="stop-color:#F3F3F3"/>
	<stop  offset="0.6572" style="stop-color:#FCFCFC"/>
	<stop  offset="1" style="stop-color:#FFFFFF"/>
</linearGradient>
<polygon class="st3" points="9651.9,-4344.9 9771.6,-4040.8 9771.7,-4040.8 10094.7,-3991.4 10094.7,-3991.4 10094.7,-3991.4 
	9975,-4295.5 9975,-4295.5 9651.9,-4344.9 "/>
<polygon class="st4" points="13371.1,2516.1 13371.1,900.6 14728.1,130.5 16133,934.4 16133,2498.1 14727.6,3302.3 "/>
<polygon class="st0" points="14727.9,236 13462.7,954 13462.7,2463.3 14727.9,3196.6 16041.4,2445 16041.4,987.6 "/>
<rect x="6556.4" y="-4118.2" class="st5" width="120.1" height="120.1"/>
<rect x="6929.3" y="-4377.4" class="st6" width="94.8" height="94.8"/>
<rect x="6986.2" y="-4592.3" class="st6" width="126.4" height="126.4"/>
<rect x="6866.1" y="-4851.5" class="st7" width="170.7" height="170.7"/>
<rect x="7473" y="-4744" class="st7" width="183.3" height="183.3"/>
<rect x="7909.1" y="-4282.6" class="st8" width="183.3" height="183.3"/>
<rect x="7371.8" y="-3637.8" class="st6" width="44.3" height="44.3"/>
<rect x="7055.8" y="-4048.7" class="st5" width="208.6" height="208.6"/>
<rect x="7466.6" y="-4042.4" class="st6" width="94.8" height="94.8"/>
<rect x="6689.1" y="-3808.5" class="st8" width="107.5" height="107.5"/>
<rect x="6600.6" y="-4617.6" class="st6" width="132.7" height="132.7"/>
<rect x="6689.1" y="-3486.1" class="st6" width="25.3" height="25.3"/>
<rect x="7583.6" y="-5350.9" class="st6" width="25.3" height="25.3"/>
<rect x="7482.5" y="-4295.2" class="st6" width="113.8" height="113.8"/>
<rect x="7678.4" y="-4481.7" class="st5" width="31.6" height="31.6"/>
<rect x="7839.6" y="-4497.5" class="st5" width="113.8" height="113.8"/>
<rect x="7985" y="-4794.6" class="st7" width="94.8" height="94.8"/>
<rect x="7874.4" y="-3957" class="st5" width="94.8" height="94.8"/>
<rect x="7662.6" y="-3656.8" class="st8" width="88.5" height="88.5"/>
<rect x="6625.9" y="-4611.3" class="st8" width="208.6" height="208.6"/>
<rect x="7289.7" y="-4548.1" class="st6" width="233.9" height="233.9"/>
<rect x="8051.4" y="-4462.7" class="st6" width="120.1" height="120.1"/>
<rect x="7792.2" y="-3818" class="st5" width="221.3" height="221.3"/>
<rect x="7441.4" y="-3846.4" class="st6" width="196" height="196"/>
<rect x="7024.2" y="-3979.2" class="st6" width="151.7" height="151.7"/>
<rect x="6638.6" y="-4219.4" class="st8" width="107.5" height="107.5"/>
<rect x="6689.1" y="-4080.3" class="st7" width="126.4" height="126.4"/>
<rect x="7087.4" y="-4143.5" class="st8" width="139.1" height="139.1"/>
<rect x="7618.4" y="-4023.4" class="st5" width="56.9" height="56.9"/>
<rect x="7672.1" y="-4200.4" class="st5" width="69.5" height="69.5"/>
<rect x="7947.1" y="-4687.1" class="st5" width="107.5" height="107.5"/>
<rect x="7346.5" y="-4927.4" class="st6" width="221.2" height="221.2"/>
<rect x="7751.1" y="-5028.5" class="st5" width="145.4" height="145.4"/>
<rect x="6524.8" y="-5053.8" class="st8" width="120.1" height="120.1"/>
<rect x="6935.7" y="-5256.1" class="st7" width="132.7" height="132.7"/>
<rect x="7226.4" y="-5338.2" class="st6" width="145.4" height="145.4"/>
<rect x="7460.3" y="-5540.5" class="st8" width="126.4" height="126.4"/>
<rect x="7362.4" y="-5591.1" class="st7" width="50.6" height="50.6"/>
<rect x="7314.9" y="-3435.5" class="st8" width="139.1" height="139.1"/>
<rect x="7150.6" y="-3296.4" class="st7" width="101.1" height="101.1"/>
<rect x="8174.6" y="-4674.5" class="st5" width="44.2" height="44.3"/>
<rect x="7185.4" y="-4409" class="st8" width="189.6" height="189.6"/>
<rect x="8111.4" y="-4503.8" class="st7" width="170.7" height="170.7"/>
<rect x="6720.7" y="-3909.6" class="st6" width="240.2" height="240.2"/>
<rect x="6777.6" y="-4251" class="st8" width="63.2" height="63.2"/>
<rect x="6942" y="-3808.5" class="st7" width="101.1" height="101.1"/>
<rect x="7713.2" y="-4402.7" class="st8" width="151.7" height="151.7"/>
<rect x="7681.6" y="-4763" class="st8" width="221.2" height="221.2"/>
<rect x="6916.7" y="-4529.1" class="st8" width="170.7" height="170.7"/>
<rect x="6923" y="-4067.6" class="st6" width="88.5" height="88.5"/>
<rect x="6395.2" y="-3802.2" class="st5" width="259.2" height="259.2"/>
<rect x="7314.9" y="-3897" class="st7" width="151.7" height="151.7"/>
<rect x="8019.8" y="-3881.2" class="st6" width="145.4" height="145.4"/>
<rect x="6998.9" y="-4800.9" class="st8" width="240.2" height="240.2"/>
<rect x="7172.7" y="-4734.6" class="st6" width="107.5" height="107.5"/>
<rect x="6493.2" y="-4864.1" class="st5" width="164.4" height="164.4"/>
<rect x="6777.6" y="-4996.9" class="st5" width="82.2" height="82.2"/>
<rect x="6714.4" y="-4232" class="st6" width="189.6" height="189.6"/>
<rect x="7289.7" y="-4055" class="st8" width="196" height="196"/>
<rect x="7988.2" y="-4181.4" class="st7" width="126.4" height="126.4"/>
<rect x="7668.9" y="-4883.1" class="st8" width="50.6" height="50.6"/>
<rect x="7144.3" y="-4984.2" class="st5" width="56.9" height="56.9"/>
<rect x="6638.6" y="-4345.8" class="st5" width="63.2" height="63.2"/>
<rect x="7763.8" y="-4118.2" class="st8" width="56.9" height="56.9"/>
<rect x="7163.2" y="-4181.4" class="st6" width="69.5" height="69.5"/>
<rect x="7444.5" y="-4456.4" class="st8" width="196" height="196"/>
<rect x="6938.8" y="-3637.8" class="st6" width="107.5" height="107.5"/>
<rect x="6904.1" y="-3694.7" class="st8" width="44.2" height="44.2"/>
<rect x="7100" y="-3669.4" class="st5" width="126.4" height="126.4"/>
<rect x="7378.2" y="-4965.3" class="st8" width="164.4" height="164.4"/>
<rect x="7902.8" y="-4914.7" class="st8" width="19" height="19"/>
<rect x="7314.9" y="-5060.1" class="st7" width="94.8" height="94.8"/>
<rect x="7567.8" y="-4055" class="st5" width="196" height="196"/>
<rect x="7548.8" y="-3701" class="st7" width="94.8" height="94.8"/>
<rect x="7959.7" y="-3568.3" class="st5" width="69.5" height="69.5"/>
<rect x="6229.8" y="-2866.6" class="st0" width="11548.6" height="358.6"/>
<linearGradient id="SVGID_4_" gradientUnits="userSpaceOnUse" x1="27540.3086" y1="5398.7476" x2="27540.3086" y2="4016.0476" gradientTransform="matrix(0 -1 -1 0 12904.1475 24853.1094)">
	<stop  offset="0.5939" style="stop-color:#F3F4F4"/>
	<stop  offset="1" style="stop-color:#C5C8CA"/>
</linearGradient>
<polygon class="st9" points="8435.1,-2866.5 7505.4,-2866.5 7505.4,-2507.9 8435.1,-2507.9 8435.1,-2425.6 8661.6,-2556.4 
	8888.1,-2687.2 8661.6,-2818 8435.1,-2948.8 "/>
<linearGradient id="SVGID_5_" gradientUnits="userSpaceOnUse" x1="27540.3086" y1="1099.5476" x2="27540.3086" y2="-283.1521" gradientTransform="matrix(0 -1 -1 0 12904.1475 24853.1094)">
	<stop  offset="0.5939" style="stop-color:#F3F4F4"/>
	<stop  offset="1" style="stop-color:#C5C8CA"/>
</linearGradient>
<polygon class="st10" points="12734.2,-2866.5 11804.6,-2866.5 11804.6,-2507.9 12734.2,-2507.9 12734.2,-2425.6 12960.8,-2556.4 
	13187.3,-2687.2 12960.8,-2818 12734.2,-2948.8 "/>
<linearGradient id="SVGID_6_" gradientUnits="userSpaceOnUse" x1="18492.3555" y1="-13801.7207" x2="18492.3555" y2="-14720.3213" gradientTransform="matrix(-1 0 0 1 33578.4531 11293.7207)">
	<stop  offset="0.5939" style="stop-color:#F3F4F4"/>
	<stop  offset="1" style="stop-color:#C5C8CA"/>
</linearGradient>
<polygon class="st11" points="14906.8,-2973.5 14906.8,-2508 15265.4,-2508 15265.4,-2973.5 15347.7,-2973.5 15216.9,-3200.1 
	15086.1,-3426.6 14955.3,-3200.1 14824.5,-2973.5 "/>
<linearGradient id="SVGID_7_" gradientUnits="userSpaceOnUse" x1="15979.3545" y1="-13801.7207" x2="15979.3555" y2="-14720.3213" gradientTransform="matrix(-1 0 0 1 33578.4531 11293.7207)">
	<stop  offset="0.5939" style="stop-color:#F3F4F4"/>
	<stop  offset="1" style="stop-color:#C5C8CA"/>
</linearGradient>
<polygon class="st12" points="17419.8,-2973.5 17419.8,-2508 17778.4,-2508 17778.4,-2973.5 17860.7,-2973.5 17729.9,-3200.1 
	17599.1,-3426.6 17468.3,-3200.1 17337.5,-2973.5 "/>
<linearGradient id="SVGID_8_" gradientUnits="userSpaceOnUse" x1="15291.3516" y1="7873.5107" x2="15573.8779" y2="7873.5107" gradientTransform="matrix(0.9305 -0.3664 -0.3664 -0.9305 -802.1077 8148.8989)">
	<stop  offset="4.166670e-03" style="stop-color:#D0D2D3"/>
	<stop  offset="0.1806" style="stop-color:#E3E4E4"/>
	<stop  offset="0.4042" style="stop-color:#F3F3F3"/>
	<stop  offset="0.6572" style="stop-color:#FCFCFC"/>
	<stop  offset="1" style="stop-color:#FFFFFF"/>
</linearGradient>
<polygon class="st13" points="10451.4,-5008.6 10571.1,-4704.5 10571.2,-4704.5 10894.2,-4655 10894.2,-4655 10894.2,-4655 
	10774.5,-4959.1 10774.5,-4959.1 10451.4,-5008.6 "/>
<linearGradient id="SVGID_9_" gradientUnits="userSpaceOnUse" x1="15546.7295" y1="8242.3906" x2="15822.9619" y2="8067.9277" gradientTransform="matrix(0.9305 -0.3664 -0.3664 -0.9305 -802.1077 8148.8989)">
	<stop  offset="4.166670e-03" style="stop-color:#D0D2D3"/>
	<stop  offset="0.1806" style="stop-color:#E3E4E4"/>
	<stop  offset="0.4042" style="stop-color:#F3F3F3"/>
	<stop  offset="0.6572" style="stop-color:#FCFCFC"/>
	<stop  offset="1" style="stop-color:#FFFFFF"/>
</linearGradient>
<polygon class="st14" points="10888.4,-5029.8 10888.4,-5029.8 10888.4,-5029.8 10888.5,-5029.9 11091.7,-5284.4 10768.8,-5333.9 
	10768.7,-5333.9 10768.7,-5333.9 10768.7,-5333.9 10768.6,-5333.9 10768.7,-5333.9 10565.3,-5079.3 "/>
<linearGradient id="SVGID_10_" gradientUnits="userSpaceOnUse" x1="10548.7002" y1="6010.3496" x2="11075" y2="6010.3496" gradientTransform="matrix(1 0 0 -1 0 791.1992)">
	<stop  offset="0" style="stop-color:#D53C1F"/>
	<stop  offset="0.5788" style="stop-color:#E84C22"/>
	<stop  offset="1" style="stop-color:#F05323"/>
</linearGradient>
<polygon class="st15" points="10871.7,-5067.1 10871.7,-5067.1 10871.8,-5067.1 10871.8,-5067.2 11075,-5321.7 10752.1,-5371.1 
	10752,-5371.2 10752,-5371.2 10752,-5371.2 10752,-5371.2 10752,-5371.2 10548.7,-5116.6 "/>
<polygon class="st6" points="10476.1,-5042.6 10595.8,-4738.5 10595.9,-4738.5 10918.9,-4689 10918.9,-4689.1 10918.9,-4689.1 
	10799.2,-4993.1 10799.2,-4993.1 10476.1,-5042.6 "/>
<linearGradient id="SVGID_11_" gradientUnits="userSpaceOnUse" x1="15878.709" y1="7667.1406" x2="15878.709" y2="7987.1963" gradientTransform="matrix(0.9305 -0.3664 -0.3664 -0.9305 -802.1077 8148.8989)">
	<stop  offset="4.166670e-03" style="stop-color:#D0D2D3"/>
	<stop  offset="0.1806" style="stop-color:#E3E4E4"/>
	<stop  offset="0.4042" style="stop-color:#F3F3F3"/>
	<stop  offset="0.6572" style="stop-color:#FCFCFC"/>
	<stop  offset="1" style="stop-color:#FFFFFF"/>
</linearGradient>
<polygon class="st16" points="11076.9,-4638.6 11280.2,-4893.1 11280.2,-4893.1 11280.2,-4893.1 11280.1,-4893.2 11160.4,-5197.2 
	11160.4,-5197.2 11160.4,-5197.2 10957.2,-4942.7 10957.2,-4942.6 11076.9,-4638.6 "/>
<linearGradient id="SVGID_12_" gradientUnits="userSpaceOnUse" x1="10975.5" y1="5716.2998" x2="11298.5" y2="5716.2998" gradientTransform="matrix(1 0 0 -1 0 791.1992)">
	<stop  offset="0" style="stop-color:#D53C1F"/>
	<stop  offset="0.5788" style="stop-color:#E84C22"/>
	<stop  offset="1" style="stop-color:#F05323"/>
</linearGradient>
<polygon class="st17" points="11178.7,-5204.4 10975.5,-4949.9 11095.2,-4645.8 11298.5,-4900.3 "/>
<linearGradient id="SVGID_13_" gradientUnits="userSpaceOnUse" x1="9846.1328" y1="4522.6738" x2="10215.417" y2="4289.4409" gradientTransform="matrix(0.9884 0.1522 0.1522 -0.9884 1119.13 -2081.6008)">
	<stop  offset="4.166670e-03" style="stop-color:#D0D2D3"/>
	<stop  offset="0.1806" style="stop-color:#E3E4E4"/>
	<stop  offset="0.4042" style="stop-color:#F3F3F3"/>
	<stop  offset="0.6572" style="stop-color:#FCFCFC"/>
	<stop  offset="1" style="stop-color:#FFFFFF"/>
</linearGradient>
<polygon class="st18" points="11695.5,-4672.6 11695.5,-4672.6 11695.5,-4672.6 11695.6,-4672.6 12101.7,-4829.7 11762.1,-5104.3 
	11761.9,-5104.4 11761.9,-5104.4 11761.9,-5104.4 11761.9,-5104.4 11761.9,-5104.4 11355.7,-4947.3 "/>
<polygon class="st5" points="11699.5,-4717.5 11699.5,-4717.5 11699.5,-4717.5 11699.6,-4717.6 12105.7,-4874.7 11766.1,-5149.2 
	11765.9,-5149.4 11765.9,-5149.4 11765.9,-5149.4 11765.9,-5149.4 11765.9,-5149.4 11359.7,-4992.2 "/>
<polygon class="st19" points="11331,-4949.6 11264.5,-4517.8 11264.5,-4517.8 11604.3,-4243.1 11604.3,-4243.1 11604.3,-4243.1 
	11670.8,-4674.9 11670.8,-4674.9 11331,-4949.6 "/>
<linearGradient id="SVGID_14_" gradientUnits="userSpaceOnUse" x1="10277.2773" y1="3761.1189" x2="10277.2773" y2="4188.9888" gradientTransform="matrix(0.9884 0.1522 0.1522 -0.9884 1119.13 -2081.6008)">
	<stop  offset="4.166670e-03" style="stop-color:#D0D2D3"/>
	<stop  offset="0.1806" style="stop-color:#E3E4E4"/>
	<stop  offset="0.4042" style="stop-color:#F3F3F3"/>
	<stop  offset="0.6572" style="stop-color:#FCFCFC"/>
	<stop  offset="1" style="stop-color:#FFFFFF"/>
</linearGradient>
<polygon class="st20" points="11638.4,-4103.5 12044.6,-4260.6 12044.6,-4260.6 12044.5,-4260.6 12044.6,-4260.7 12111,-4692.4 
	12111,-4692.4 12111,-4692.5 11704.9,-4535.4 11704.9,-4535.2 11638.4,-4103.5 "/>
<polygon class="st21" points="12146.5,-4669.5 11740.4,-4512.4 11673.9,-4080.5 12080,-4237.6 "/>
<linearGradient id="SVGID_15_" gradientUnits="userSpaceOnUse" x1="14953.7051" y1="6930.7827" x2="14953.7051" y2="7250.8384" gradientTransform="matrix(0.9305 -0.3664 -0.3664 -0.9305 -802.1077 8148.8989)">
	<stop  offset="4.166670e-03" style="stop-color:#D0D2D3"/>
	<stop  offset="0.1806" style="stop-color:#E3E4E4"/>
	<stop  offset="0.4042" style="stop-color:#F3F3F3"/>
	<stop  offset="0.6572" style="stop-color:#FCFCFC"/>
	<stop  offset="1" style="stop-color:#FFFFFF"/>
</linearGradient>
<polygon class="st22" points="10486,-3614.5 10689.2,-3869.1 10689.2,-3869.1 10689.2,-3869.1 10689.2,-3869.1 10569.5,-4173.2 
	10569.5,-4173.2 10569.5,-4173.2 10366.2,-3918.7 10366.3,-3918.6 10486,-3614.5 "/>
<polygon class="st23" points="10606.7,-4170.9 10403.5,-3916.4 10523.3,-3612.2 10726.5,-3866.8 "/>
<linearGradient id="SVGID_16_" gradientUnits="userSpaceOnUse" x1="7768.5098" y1="2717.2817" x2="8051.0718" y2="2717.2817" gradientTransform="matrix(0.9689 0.2474 0.2474 -0.9689 2083.9756 -3703.5012)">
	<stop  offset="4.166670e-03" style="stop-color:#D0D2D3"/>
	<stop  offset="0.1806" style="stop-color:#E3E4E4"/>
	<stop  offset="0.4042" style="stop-color:#F3F3F3"/>
	<stop  offset="0.6572" style="stop-color:#FCFCFC"/>
	<stop  offset="1" style="stop-color:#FFFFFF"/>
</linearGradient>
<polygon class="st24" points="10343.9,-4652.3 10263.1,-4335.7 10263.1,-4335.6 10496.1,-4106.5 10496.1,-4106.5 10496.1,-4106.5 
	10577,-4423.1 10577,-4423.1 10343.9,-4652.3 "/>
<linearGradient id="SVGID_17_" gradientUnits="userSpaceOnUse" x1="8311.8037" y1="2797.1531" x2="8588.0361" y2="2622.6899" gradientTransform="matrix(0.9689 0.2474 0.2474 -0.9689 2083.9756 -3703.5012)">
	<stop  offset="4.166670e-03" style="stop-color:#D0D2D3"/>
	<stop  offset="0.1806" style="stop-color:#E3E4E4"/>
	<stop  offset="0.4042" style="stop-color:#F3F3F3"/>
	<stop  offset="0.6572" style="stop-color:#FCFCFC"/>
	<stop  offset="1" style="stop-color:#FFFFFF"/>
</linearGradient>
<polygon class="st25" points="10918.1,-4062.4 10918.1,-4062.4 10918.1,-4062.4 10918.2,-4062.4 11231.9,-4149.9 10999,-4379 
	10998.9,-4379.1 10998.9,-4379.1 10998.9,-4379.1 10998.9,-4379.1 10998.9,-4379.1 10685,-4291.6 "/>
<polygon class="st7" points="10922.9,-4109.9 10922.9,-4109.9 10922.9,-4109.9 10923,-4110 11236.8,-4197.4 11003.9,-4426.5 
	11003.8,-4426.6 11003.8,-4426.6 11003.8,-4426.6 11003.7,-4426.6 11003.7,-4426.6 10689.9,-4339.1 "/>
<linearGradient id="SVGID_18_" gradientUnits="userSpaceOnUse" x1="6899.1626" y1="2539.0044" x2="7041.0962" y2="2449.3621" gradientTransform="matrix(0.9689 0.2474 0.2474 -0.9689 2083.9756 -3703.5012)">
	<stop  offset="4.166670e-03" style="stop-color:#D0D2D3"/>
	<stop  offset="0.1806" style="stop-color:#E3E4E4"/>
	<stop  offset="0.4042" style="stop-color:#F3F3F3"/>
	<stop  offset="0.6572" style="stop-color:#FCFCFC"/>
	<stop  offset="1" style="stop-color:#FFFFFF"/>
</linearGradient>
<polygon class="st26" points="9442.4,-4305.1 9442.4,-4305.1 9442.4,-4305.1 9442.4,-4305.2 9603.6,-4350.1 9483.9,-4467.8 
	9483.9,-4467.9 9483.9,-4467.9 9483.9,-4467.9 9483.9,-4467.9 9483.9,-4467.9 9322.6,-4422.9 "/>
<polygon class="st27" points="9444.9,-4333.9 9444.9,-4333.9 9444.9,-4333.9 9444.9,-4333.9 9606.1,-4378.9 9486.4,-4496.6 
	9486.4,-4496.6 9486.4,-4496.6 9486.4,-4496.6 9486.4,-4496.6 9486.4,-4496.6 9325.1,-4451.7 "/>
<polygon class="st6" points="10384,-4665.1 10303.2,-4348.5 10303.2,-4348.4 10536.2,-4119.3 10536.2,-4119.3 10536.2,-4119.3 
	10617.1,-4435.9 10617.1,-4435.9 10384,-4665.1 "/>
<linearGradient id="SVGID_19_" gradientUnits="userSpaceOnUse" x1="6959.1938" y1="2672.5527" x2="7124.3491" y2="2672.5527" gradientTransform="matrix(0.9689 0.2474 0.2474 -0.9689 2083.9756 -3703.5012)">
	<stop  offset="4.166670e-03" style="stop-color:#D0D2D3"/>
	<stop  offset="0.1806" style="stop-color:#E3E4E4"/>
	<stop  offset="0.4042" style="stop-color:#F3F3F3"/>
	<stop  offset="0.6572" style="stop-color:#FCFCFC"/>
	<stop  offset="1" style="stop-color:#FFFFFF"/>
</linearGradient>
<polygon class="st28" points="9523.5,-4710.3 9476.2,-4525.3 9476.2,-4525.3 9612.4,-4391.3 9612.4,-4391.3 9612.4,-4391.3 
	9659.7,-4576.4 9659.7,-4576.4 9523.5,-4710.3 "/>
<polygon class="st8" points="9554.8,-4721.8 9507.5,-4536.7 9507.6,-4536.7 9643.7,-4402.8 9643.7,-4402.8 9643.8,-4402.8 
	9691,-4587.8 9691,-4587.8 9554.8,-4721.8 9554.8,-4721.7 "/>
<linearGradient id="SVGID_20_" gradientUnits="userSpaceOnUse" x1="8590.2852" y1="2341.3845" x2="8590.2852" y2="2661.4404" gradientTransform="matrix(0.9689 0.2474 0.2474 -0.9689 2083.9756 -3703.5012)">
	<stop  offset="4.166670e-03" style="stop-color:#D0D2D3"/>
	<stop  offset="0.1806" style="stop-color:#E3E4E4"/>
	<stop  offset="0.4042" style="stop-color:#F3F3F3"/>
	<stop  offset="0.6572" style="stop-color:#FCFCFC"/>
	<stop  offset="1" style="stop-color:#FFFFFF"/>
</linearGradient>
<polygon class="st29" points="10819.6,-3764.2 11133.3,-3851.7 11133.3,-3851.7 11133.3,-3851.7 11133.3,-3851.7 11214.2,-4168.4 
	11214.2,-4168.4 11214.2,-4168.4 10900.4,-4080.9 10900.4,-4080.8 10819.6,-3764.2 "/>
<polygon class="st7" points="11242.7,-4135 10929,-4047.6 10848.1,-3730.9 11161.9,-3818.4 "/>
<linearGradient id="SVGID_21_" gradientUnits="userSpaceOnUse" x1="7738.2207" y1="2114.031" x2="7738.2207" y2="2434.0869" gradientTransform="matrix(0.9689 0.2474 0.2474 -0.9689 2083.9756 -3703.5012)">
	<stop  offset="4.166670e-03" style="stop-color:#D0D2D3"/>
	<stop  offset="0.1806" style="stop-color:#E3E4E4"/>
	<stop  offset="0.4042" style="stop-color:#F3F3F3"/>
	<stop  offset="0.6572" style="stop-color:#FCFCFC"/>
	<stop  offset="1" style="stop-color:#FFFFFF"/>
</linearGradient>
<polygon class="st30" points="9937.8,-3754.7 10251.5,-3842.2 10251.5,-3842.2 10251.5,-3842.2 10251.5,-3842.3 10332.4,-4158.9 
	10332.3,-4158.9 10332.4,-4158.9 10018.6,-4071.4 10018.6,-4071.3 9937.7,-3754.7 "/>
<polygon class="st5" points="10360.9,-4135 10047.1,-4047.6 9966.3,-3730.9 10280,-3818.4 "/>
<linearGradient id="SVGID_22_" gradientUnits="userSpaceOnUse" x1="7137.3428" y1="2065.1487" x2="7137.3428" y2="2282.8411" gradientTransform="matrix(0.9689 0.2474 0.2474 -0.9689 2083.9756 -3703.5012)">
	<stop  offset="4.166670e-03" style="stop-color:#D0D2D3"/>
	<stop  offset="0.1806" style="stop-color:#E3E4E4"/>
	<stop  offset="0.4042" style="stop-color:#F3F3F3"/>
	<stop  offset="0.6572" style="stop-color:#FCFCFC"/>
	<stop  offset="1" style="stop-color:#FFFFFF"/>
</linearGradient>
<polygon class="st31" points="9396.8,-3882.4 9610.2,-3941.9 9610.2,-3941.9 9610.2,-3941.9 9610.2,-3942 9665.2,-4157.3 
	9665.2,-4157.3 9665.2,-4157.3 9451.8,-4097.8 9451.8,-4097.8 9396.8,-3882.4 "/>
<polygon class="st8" points="9687.7,-4135 9474.3,-4075.5 9419.3,-3860.1 9632.7,-3919.6 "/>
<linearGradient id="SVGID_23_" gradientUnits="userSpaceOnUse" x1="13183.2002" y1="4890.8994" x2="14138.0996" y2="4890.8994" gradientTransform="matrix(1 0 0 -1 0 791.1992)">
	<stop  offset="4.166670e-03" style="stop-color:#D0D2D3"/>
	<stop  offset="0.1806" style="stop-color:#E3E4E4"/>
	<stop  offset="0.4042" style="stop-color:#F3F3F3"/>
	<stop  offset="0.6572" style="stop-color:#FCFCFC"/>
	<stop  offset="1" style="stop-color:#FFFFFF"/>
</linearGradient>
<polygon class="st32" points="13183.2,-4929.8 13183.2,-3825.2 13183.4,-3825.1 14138.1,-3269.6 14138.1,-3269.6 14138.1,-3269.6 
	14138.1,-4374.1 14138.1,-4374.1 13183.2,-4929.8 13183.2,-4929.7 "/>
<linearGradient id="SVGID_24_" gradientUnits="userSpaceOnUse" x1="13743.5137" y1="6104.3496" x2="14677.1416" y2="5514.6885" gradientTransform="matrix(1 0 0 -1 0 791.1992)">
	<stop  offset="4.166670e-03" style="stop-color:#D0D2D3"/>
	<stop  offset="0.1806" style="stop-color:#E3E4E4"/>
	<stop  offset="0.4042" style="stop-color:#F3F3F3"/>
	<stop  offset="0.6572" style="stop-color:#FCFCFC"/>
	<stop  offset="1" style="stop-color:#FFFFFF"/>
</linearGradient>
<polygon class="st33" points="14280.6,-4421.7 14280.6,-4421.7 14280.6,-4421.7 14280.9,-4421.9 15235.2,-4970.7 14280.9,-5526 
	14280.4,-5526.3 14280.4,-5526.3 14280.4,-5526.3 14280.4,-5526.3 14280.4,-5526.3 13325.8,-4977.3 "/>
<polygon class="st5" points="14280.6,-4488.1 14280.6,-4488.1 14280.6,-4488.1 14280.9,-4488.3 15235.2,-5037.1 14280.9,-5592.5 
	14280.4,-5592.7 14280.4,-5592.7 14280.4,-5592.7 14280.4,-5592.7 14280.4,-5592.7 13325.8,-5043.8 "/>
<polygon class="st19" points="13249.6,-4958.2 13249.6,-3853.7 13249.9,-3853.6 14204.5,-3298 14204.5,-3298 14204.5,-3298 
	14204.5,-4402.6 14204.5,-4402.6 13249.7,-4958.2 13249.7,-4958.2 "/>
<linearGradient id="SVGID_25_" gradientUnits="userSpaceOnUse" x1="14758.0996" y1="4499.3457" x2="14758.1006" y2="5581.0898" gradientTransform="matrix(1 0 0 -1 0 791.1992)">
	<stop  offset="4.166670e-03" style="stop-color:#D0D2D3"/>
	<stop  offset="0.1806" style="stop-color:#E3E4E4"/>
	<stop  offset="0.4042" style="stop-color:#F3F3F3"/>
	<stop  offset="0.6572" style="stop-color:#FCFCFC"/>
	<stop  offset="1" style="stop-color:#FFFFFF"/>
</linearGradient>
<polygon class="st34" points="14280.9,-3298.1 15235.3,-3846.9 15235.3,-3846.9 15235.2,-3847 15235.2,-3847.1 15235.2,-4951.6 
	15235.2,-4951.6 15235.2,-4951.6 14280.9,-4402.8 14280.9,-4402.5 14280.9,-3298.1 "/>
<polygon class="st21" points="15301.6,-4951.6 14347.3,-4402.8 14347.3,-3298.1 15301.7,-3847 "/>
<linearGradient id="SVGID_26_" gradientUnits="userSpaceOnUse" x1="15711.2002" y1="4890.8994" x2="16666.0996" y2="4890.8994" gradientTransform="matrix(1 0 0 -1 0 791.1992)">
	<stop  offset="4.166670e-03" style="stop-color:#D0D2D3"/>
	<stop  offset="0.1806" style="stop-color:#E3E4E4"/>
	<stop  offset="0.4042" style="stop-color:#F3F3F3"/>
	<stop  offset="0.6572" style="stop-color:#FCFCFC"/>
	<stop  offset="1" style="stop-color:#FFFFFF"/>
</linearGradient>
<polygon class="st35" points="15711.2,-4929.8 15711.2,-3825.2 15711.4,-3825.1 16666.1,-3269.6 16666.1,-3269.6 16666.1,-3269.6 
	16666.1,-4374.1 16666.1,-4374.1 15711.2,-4929.8 15711.2,-4929.7 "/>
<linearGradient id="SVGID_27_" gradientUnits="userSpaceOnUse" x1="16271.5137" y1="6104.3496" x2="17205.1426" y2="5514.6885" gradientTransform="matrix(1 0 0 -1 0 791.1992)">
	<stop  offset="4.166670e-03" style="stop-color:#D0D2D3"/>
	<stop  offset="0.1806" style="stop-color:#E3E4E4"/>
	<stop  offset="0.4042" style="stop-color:#F3F3F3"/>
	<stop  offset="0.6572" style="stop-color:#FCFCFC"/>
	<stop  offset="1" style="stop-color:#FFFFFF"/>
</linearGradient>
<polygon class="st36" points="16808.6,-4421.7 16808.6,-4421.7 16808.6,-4421.7 16808.9,-4421.9 17763.2,-4970.7 16808.9,-5526 
	16808.4,-5526.3 16808.4,-5526.3 16808.4,-5526.3 16808.4,-5526.3 16808.4,-5526.3 15853.8,-4977.3 "/>
<polygon class="st5" points="16808.6,-4488.1 16808.6,-4488.1 16808.6,-4488.1 16808.9,-4488.3 17763.2,-5037.1 16808.9,-5592.5 
	16808.4,-5592.7 16808.4,-5592.7 16808.4,-5592.7 16808.4,-5592.7 16808.4,-5592.7 15853.8,-5043.8 "/>
<polygon class="st19" points="15777.6,-4958.2 15777.6,-3853.7 15777.9,-3853.6 16732.5,-3298 16732.5,-3298 16732.5,-3298 
	16732.5,-4402.6 16732.5,-4402.6 15777.7,-4958.2 15777.7,-4958.2 "/>
<linearGradient id="SVGID_28_" gradientUnits="userSpaceOnUse" x1="17286.0996" y1="4499.3457" x2="17286.0996" y2="5581.0898" gradientTransform="matrix(1 0 0 -1 0 791.1992)">
	<stop  offset="4.166670e-03" style="stop-color:#D0D2D3"/>
	<stop  offset="0.1806" style="stop-color:#E3E4E4"/>
	<stop  offset="0.4042" style="stop-color:#F3F3F3"/>
	<stop  offset="0.6572" style="stop-color:#FCFCFC"/>
	<stop  offset="1" style="stop-color:#FFFFFF"/>
</linearGradient>
<polygon class="st37" points="16808.9,-3298.1 17763.3,-3846.9 17763.3,-3846.9 17763.2,-3847 17763.2,-3847.1 17763.2,-4951.6 
	17763.2,-4951.6 17763.2,-4951.6 16808.9,-4402.8 16808.9,-4402.5 16808.9,-3298.1 "/>
<polygon class="st21" points="17829.6,-4951.6 16875.3,-4402.8 16875.3,-3298.1 17829.7,-3847 "/>
<linearGradient id="SVGID_29_" gradientUnits="userSpaceOnUse" x1="7814.3999" y1="-1981.0005" x2="8769.2998" y2="-1981.0005" gradientTransform="matrix(1 0 0 -1 0 791.1992)">
	<stop  offset="4.166670e-03" style="stop-color:#D0D2D3"/>
	<stop  offset="0.1806" style="stop-color:#E3E4E4"/>
	<stop  offset="0.4042" style="stop-color:#F3F3F3"/>
	<stop  offset="0.6572" style="stop-color:#FCFCFC"/>
	<stop  offset="1" style="stop-color:#FFFFFF"/>
</linearGradient>
<polygon class="st38" points="7814.4,1942.1 7814.4,3046.7 7814.6,3046.8 8769.3,3602.3 8769.3,3602.3 8769.3,3602.3 8769.3,2497.8 
	8769.3,2497.8 7814.5,1942.1 7814.5,1942.1 "/>
<linearGradient id="SVGID_30_" gradientUnits="userSpaceOnUse" x1="8374.7217" y1="-767.5054" x2="9308.3496" y2="-1357.1666" gradientTransform="matrix(1 0 0 -1 0 791.1992)">
	<stop  offset="4.166670e-03" style="stop-color:#D0D2D3"/>
	<stop  offset="0.1806" style="stop-color:#E3E4E4"/>
	<stop  offset="0.4042" style="stop-color:#F3F3F3"/>
	<stop  offset="0.6572" style="stop-color:#FCFCFC"/>
	<stop  offset="1" style="stop-color:#FFFFFF"/>
</linearGradient>
<polygon class="st39" points="8911.8,2450.2 8911.8,2450.2 8911.8,2450.2 8912.1,2450 9866.4,1901.2 8912.1,1345.8 8911.6,1345.6 
	8911.6,1345.6 8911.6,1345.6 8911.6,1345.5 8911.6,1345.6 7957,1894.5 "/>
<polygon class="st5" points="8911.8,2383.8 8911.8,2383.7 8911.8,2383.8 8912.1,2383.6 9866.4,1834.7 8912.1,1279.4 8911.6,1279.1 
	8911.6,1279.1 8911.6,1279.1 8911.6,1279.1 8911.6,1279.1 7957,1828.1 "/>
<polygon class="st19" points="7880.8,1913.6 7880.8,3018.2 7881.1,3018.3 8835.7,3573.8 8835.7,3573.8 8835.7,3573.8 8835.7,2469.3 
	8835.7,2469.3 7880.9,1913.6 7880.9,1913.6 "/>
<linearGradient id="SVGID_31_" gradientUnits="userSpaceOnUse" x1="9389.2998" y1="-2372.5156" x2="9389.2998" y2="-1290.7715" gradientTransform="matrix(1 0 0 -1 0 791.1992)">
	<stop  offset="4.166670e-03" style="stop-color:#D0D2D3"/>
	<stop  offset="0.1806" style="stop-color:#E3E4E4"/>
	<stop  offset="0.4042" style="stop-color:#F3F3F3"/>
	<stop  offset="0.6572" style="stop-color:#FCFCFC"/>
	<stop  offset="1" style="stop-color:#FFFFFF"/>
</linearGradient>
<polygon class="st40" points="8912.1,3573.8 9866.5,3025 9866.5,3024.9 9866.4,3024.9 9866.4,3024.7 9866.4,1920.2 9866.4,1920.3 
	9866.4,1920.2 8912.1,2469 8912.1,2469.4 8912.1,3573.8 8912.1,3573.7 "/>
<polygon class="st21" points="9932.8,1920.2 8978.5,2469 8978.5,3573.8 9932.9,3024.9 "/>
<linearGradient id="SVGID_32_" gradientUnits="userSpaceOnUse" x1="14073.4854" y1="215.3646" x2="15211.2803" y2="-503.2438" gradientTransform="matrix(1 0 0 -1 0 791.1992)">
	<stop  offset="0" style="stop-color:#D53C1F"/>
	<stop  offset="0.5788" style="stop-color:#E84C22"/>
	<stop  offset="1" style="stop-color:#F05323"/>
</linearGradient>
<polygon class="st41" points="14728,1662.2 14728,1662.2 14728,1662.2 14728.4,1662 15891.4,993.2 14728.4,316.4 14727.8,316 
	14727.8,316.1 14727.8,316.1 14727.8,316 14727.8,316 13564.4,985.1 "/>
<linearGradient id="SVGID_33_" gradientUnits="userSpaceOnUse" x1="14709.0996" y1="-1291.3501" x2="13545.4004" y2="-1291.3501" gradientTransform="matrix(1 0 0 -1 0 791.1992)">
	<stop  offset="0" style="stop-color:#D53C1F"/>
	<stop  offset="0.5788" style="stop-color:#E84C22"/>
	<stop  offset="1" style="stop-color:#F05323"/>
</linearGradient>
<polygon class="st42" points="13545.4,1070.9 13545.4,2417.1 13545.7,2417.2 14709,3094.2 14709,3094.2 14709.1,3094.2 
	14709.1,1748.1 14709.1,1748.1 13545.4,1070.9 13545.4,1071 "/>
<linearGradient id="SVGID_34_" gradientUnits="userSpaceOnUse" x1="16096.4697" y1="-382.3086" x2="14660.667" y2="-2168.7131" gradientTransform="matrix(1 0 0 -1 0 791.1992)">
	<stop  offset="0" style="stop-color:#D53C1F"/>
	<stop  offset="0.5788" style="stop-color:#E84C22"/>
	<stop  offset="1" style="stop-color:#F05323"/>
</linearGradient>
<polygon class="st43" points="15960.8,1058.3 14797.8,1727.1 14797.8,3073.4 15960.8,2404.5 "/>
<g class="st44">
	<path class="st5" d="M7138.3-2610h-53.3v-164.3h57.5c51.6,0,84.5,19.5,84.5,81.2S7196.5-2610,7138.3-2610z M7142.3-2735.3h-11.3
		v86.4h9.9c28.4,0,39.4-10.8,39.4-43.4C7180.3-2722.6,7170.7-2735.3,7142.3-2735.3z"/>
	<path class="st5" d="M7315.5-2610v-8.2c-8,6.1-18.8,10.8-30,10.8c-23.9,0-39.9-14.8-39.9-42.5c0-26.5,18.3-40.1,44.4-40.1
		c11.3,0,18.8,2.1,25.6,5.2v-6.1c0-10.8-5.9-14.5-17.4-14.5c-12.7,0-22.3,2.3-34.3,8.9l-11-27.9c15-7.3,31.7-11.3,53-11.3
		c34.5,0,49.5,17.1,49.5,45.8v80H7315.5z M7315.5-2660.2c-4.7-2.1-10.1-3.5-18.1-3.5c-8.7,0-13.1,4.7-13.1,13.1
		c0,7.7,4,13.4,13.1,13.4c7,0,14.1-2.8,18.1-6.1V-2660.2z"/>
	<path class="st5" d="M7456.3-2614c-8.2,4-18.5,6.6-30.5,6.6c-22.3,0-32.6-11.3-32.6-39.2v-53.5h-18.8v-33.1h18.8v-31.2l41.1-16.7
		v47.9h26.8v33.1h-26.8v44.6c0,9.4,3.5,12.2,10.6,12.2c5.6,0,10.3-2.1,16.9-6.6L7456.3-2614z"/>
	<path class="st5" d="M7548.6-2610v-8.2c-8,6.1-18.8,10.8-30,10.8c-23.9,0-39.9-14.8-39.9-42.5c0-26.5,18.3-40.1,44.4-40.1
		c11.3,0,18.8,2.1,25.6,5.2v-6.1c0-10.8-5.9-14.5-17.4-14.5c-12.7,0-22.3,2.3-34.3,8.9l-11-27.9c15-7.3,31.7-11.3,53-11.3
		c34.5,0,49.5,17.1,49.5,45.8v80H7548.6z M7548.6-2660.2c-4.7-2.1-10.1-3.5-18.1-3.5c-8.7,0-13.1,4.7-13.1,13.1
		c0,7.7,4,13.4,13.1,13.4c7,0,14.1-2.8,18.1-6.1V-2660.2z"/>
</g>
<g class="st44">
	<path class="st5" d="M10366.9-2610v-164.3h46v124.6h72.7v39.7H10366.9z"/>
	<path class="st5" d="M10610.3-2659.5h-72.3c1.4,13.6,9.4,19.7,20.9,19.7c10.8,0,19.7-2.3,31.9-8.7l16.2,27
		c-15.3,8.9-31,14.1-50.2,14.1c-37.1,0-57.5-26.3-57.5-64.1c0-42.5,23.9-64.3,56.3-64.3c33.8,0,54.9,22.3,54.9,68.1
		C10610.5-2664.2,10610.5-2661.6,10610.3-2659.5z M10554.4-2704.6c-9.6,0-15,6.6-16.4,18.8h35.2
		C10571.1-2698.2,10566.8-2704.6,10554.4-2704.6z"/>
	<path class="st5" d="M10695.9-2610v-8.2c-8,6.1-18.8,10.8-30,10.8c-23.9,0-39.9-14.8-39.9-42.5c0-26.5,18.3-40.1,44.4-40.1
		c11.3,0,18.8,2.1,25.6,5.2v-6.1c0-10.8-5.9-14.5-17.4-14.5c-12.7,0-22.3,2.3-34.3,8.9l-11-27.9c15-7.3,31.7-11.3,53-11.3
		c34.5,0,49.5,17.1,49.5,45.8v80H10695.9z M10695.9-2660.2c-4.7-2.1-10.1-3.5-18.1-3.5c-8.7,0-13.1,4.7-13.1,13.1
		c0,7.7,4,13.4,13.1,13.4c7,0,14.1-2.8,18.1-6.1V-2660.2z"/>
	<path class="st5" d="M10839.7-2686.7c-5.4-5.9-11.5-10.3-19.7-10.3c-10.3,0-16.7,4.9-16.7,19.9v67.1h-42.2v-123.2h42.2v8.9
		c7.3-7,15.5-11.5,26.3-11.5c8.9,0,15,2.1,19.9,5.2L10839.7-2686.7z"/>
	<path class="st5" d="M10936.9-2610v-69.9c0-16-5.4-20.2-14.1-20.2c-8.9,0-14.3,4.2-14.3,19.7v70.4h-42.2v-123.2h42.2v8.2
		c7.7-5.9,16.4-10.8,31-10.8c27,0,39.9,18.1,39.9,50.5v75.3H10936.9z"/>
	<path class="st5" d="M11110.8-2659.5h-72.3c1.4,13.6,9.4,19.7,20.9,19.7c10.8,0,19.7-2.3,31.9-8.7l16.2,27
		c-15.3,8.9-31,14.1-50.2,14.1c-37.1,0-57.5-26.3-57.5-64.1c0-42.5,23.9-64.3,56.3-64.3c33.8,0,54.9,22.3,54.9,68.1
		C11111-2664.2,11111-2661.6,11110.8-2659.5z M11054.9-2704.6c-9.6,0-15,6.6-16.4,18.8h35.2
		C11071.6-2698.2,11067.4-2704.6,11054.9-2704.6z"/>
	<path class="st5" d="M11211-2686.7c-5.4-5.9-11.5-10.3-19.7-10.3c-10.3,0-16.7,4.9-16.7,19.9v67.1h-42.2v-123.2h42.2v8.9
		c7.3-7,15.5-11.5,26.3-11.5c8.9,0,15,2.1,19.9,5.2L11211-2686.7z"/>
</g>
<rect x="7737.5" y="3805.4" class="st0" width="8808.9" height="358.6"/>
<linearGradient id="SVGID_35_" gradientUnits="userSpaceOnUse" x1="8269.5898" y1="-8063.6855" x2="8269.5898" y2="-9446.4854" gradientTransform="matrix(-4.489700e-11 1 -1 -4.489700e-11 1111.3145 -4284.6899)">
	<stop  offset="0.5939" style="stop-color:#F3F4F4"/>
	<stop  offset="1" style="stop-color:#C5C8CA"/>
</linearGradient>
<polygon class="st45" points="10104.7,4164.2 9175,4164.2 9175,3805.5 10104.7,3805.5 10104.7,3723.3 10331.2,3854.1 
	10557.8,3984.9 10331.2,4115.7 10104.7,4246.5 "/>
<linearGradient id="SVGID_36_" gradientUnits="userSpaceOnUse" x1="20115.1191" y1="-3161.3625" x2="20115.1211" y2="-5683.6621" gradientTransform="matrix(-1 0 0 -1 36528.6211 1063.1375)">
	<stop  offset="0.5939" style="stop-color:#F3F4F4"/>
	<stop  offset="1" style="stop-color:#C5C8CA"/>
</linearGradient>
<polygon class="st46" points="16234.2,6293.8 16234.2,4224.5 16592.8,4224.5 16592.8,6293.8 16675.1,6293.8 16544.3,6520.3 
	16413.5,6746.8 16282.7,6520.3 16151.9,6293.8 "/>
<linearGradient id="SVGID_37_" gradientUnits="userSpaceOnUse" x1="11282.377" y1="-6311.4189" x2="11282.377" y2="-9151.8184" gradientTransform="matrix(1 0 0 1 1820.3232 13533.3184)">
	<stop  offset="0.5939" style="stop-color:#F3F4F4"/>
	<stop  offset="1" style="stop-color:#C5C8CA"/>
</linearGradient>
<polygon class="st47" points="13282,4834.5 13282,7221.9 12923.4,7221.9 12923.4,4834.5 12841.1,4834.5 12971.9,4608 
	13102.7,4381.5 13233.5,4608 13364.3,4834.5 "/>
<g class="st44">
	<path class="st5" d="M13668.2,3937.4V4062h-45.5v-124.6h-46v-39.7h137.5v39.7H13668.2z"/>
	<path class="st5" d="M13816.3,4012.5h-72.3c1.4,13.6,9.4,19.7,20.9,19.7c10.8,0,19.7-2.3,31.9-8.7l16.2,27
		c-15.3,8.9-31,14.1-50.2,14.1c-37.1,0-57.5-26.3-57.5-64.1c0-42.5,23.9-64.3,56.3-64.3c33.8,0,54.9,22.3,54.9,68.1
		C13816.6,4007.8,13816.6,4010.4,13816.3,4012.5z M13760.5,3967.5c-9.6,0-15,6.6-16.4,18.8h35.2
		C13777.1,3973.8,13772.9,3967.5,13760.5,3967.5z"/>
	<path class="st5" d="M13908.5,4062v-69.9c0-16-5.4-20.2-14.1-20.2c-8.9,0-14.3,4.2-14.3,19.7v70.4h-42.2v-123.2h42.2v8.2
		c7.7-5.9,16.4-10.8,31-10.8c27,0,39.9,18.1,39.9,50.5v75.3H13908.5z"/>
	<path class="st5" d="M14024.7,4064.6c-18.1,0-35.7-4-51.4-10.1l9.9-31.9c14.8,6.6,31.7,10.8,42.5,10.8c8.2,0,11.3-1.9,11.3-5.6
		c0-4-1.9-5.6-9.9-7.7c-38-10.1-51.2-17.8-51.2-43.4c0-25.3,16.7-40.4,50.2-40.4c18.5,0,31,3.1,47.4,8.9l-9.4,32.6
		c-16.2-7-28.4-10.3-39.2-10.3c-8.2,0-10.3,1.6-10.3,5.4s1.4,5.2,12.2,8.4c34.7,9.2,48.8,17.4,48.8,41.8
		C14075.6,4051.5,14056.2,4064.6,14024.7,4064.6z"/>
	<path class="st5" d="M14150.2,4064.6c-34,0-58.4-21.8-58.4-64.3c0-42.9,24.4-64.1,58.4-64.1c34,0,58.7,21.1,58.7,64.1
		C14208.9,4042.8,14184.3,4064.6,14150.2,4064.6z M14150.2,3970.5c-11,0-16.7,8.9-16.7,29.8c0,20.4,5.6,30,16.7,30s16.7-9.6,16.7-30
		C14166.9,3979.4,14161.3,3970.5,14150.2,3970.5z"/>
	<path class="st5" d="M14308.9,3985.3c-5.4-5.9-11.5-10.3-19.7-10.3c-10.3,0-16.7,4.9-16.7,19.9v67.1h-42.2v-123.2h42.2v8.9
		c7.3-7,15.5-11.5,26.3-11.5c8.9,0,15,2.1,19.9,5.2L14308.9,3985.3z"/>
	<path class="st5" d="M14384.2,3936.5v22.8h51.4v38.5h-51.4v64.3h-45.3v-164.3h130v38.7H14384.2z"/>
	<path class="st5" d="M14491,4062v-154.2l42.2-16.9V4062H14491z"/>
	<path class="st5" d="M14614.2,4064.6c-34,0-58.4-21.8-58.4-64.3c0-42.9,24.4-64.1,58.4-64.1c34,0,58.7,21.1,58.7,64.1
		C14672.8,4042.8,14648.2,4064.6,14614.2,4064.6z M14614.2,3970.5c-11,0-16.7,8.9-16.7,29.8c0,20.4,5.6,30,16.7,30s16.7-9.6,16.7-30
		C14630.8,3979.4,14625.2,3970.5,14614.2,3970.5z"/>
	<path class="st5" d="M14811.8,4062h-34.3l-5.2-25.1c-2.8-14.1-7.7-41.3-9.2-50.2c-1.6,8.9-6.1,35.9-9.4,50.7l-5.2,24.6h-33.3
		l-34.7-123.2h40.8l3.5,18.3c2.6,14.1,6.6,41.3,8,50.2c1.6-8.9,6.6-35.9,9.6-50.7l4-17.8h34.7l3.8,17.8c3.1,14.8,8,41.8,9.6,50.7
		c1.4-8.9,5.4-36.1,8.2-50.2l3.3-18.3h40.4L14811.8,4062z"/>
	<path class="st5" d="M15007.5,4064.6c-26.5,0-52.1-8.7-69.2-19.9l22.1-35.7c12,8.2,32.9,16.4,48.1,16.4c16.2,0,21.4-2.8,21.4-10.6
		c0-6.1-5.9-9.9-27.9-15c-39.7-9.2-58.7-19.9-58.7-52.8c0-31,25.1-51.9,64.8-51.9c27.9,0,48.1,6.8,65.5,19l-22.1,35.7
		c-14.5-9.9-29.1-15.5-45.8-15.5c-13.6,0-16.9,4.2-16.9,10.1c0,6.1,5.9,8.9,27,13.8c41.3,9.9,59.6,22.5,59.6,53.3
		C15075.3,4049.1,15046.9,4064.6,15007.5,4064.6z"/>
	<path class="st5" d="M15204.1,4012.5h-72.3c1.4,13.6,9.4,19.7,20.9,19.7c10.8,0,19.7-2.3,31.9-8.7l16.2,27
		c-15.3,8.9-31,14.1-50.2,14.1c-37.1,0-57.5-26.3-57.5-64.1c0-42.5,23.9-64.3,56.3-64.3c33.8,0,54.9,22.3,54.9,68.1
		C15204.3,4007.8,15204.3,4010.4,15204.1,4012.5z M15148.3,3967.5c-9.6,0-15,6.6-16.4,18.8h35.2
		C15164.9,3973.8,15160.7,3967.5,15148.3,3967.5z"/>
	<path class="st5" d="M15304.3,3985.3c-5.4-5.9-11.5-10.3-19.7-10.3c-10.3,0-16.7,4.9-16.7,19.9v67.1h-42.2v-123.2h42.2v8.9
		c7.3-7,15.5-11.5,26.3-11.5c8.9,0,15,2.1,19.9,5.2L15304.3,3985.3z"/>
	<path class="st5" d="M15407.8,4062h-41.5l-42.7-123.2h44.8l11,45.3c2.6,10.3,6.1,25.1,7.5,36.8c1.6-11.7,5.2-26.5,7.7-36.8
		l11.3-45.3h44.6L15407.8,4062z"/>
	<path class="st5" d="M15489.5,3929.9c-13.8,0-24.2-8-24.2-20.9c0-12,10.3-20.4,24.2-20.4c14.5,0,24.6,8.4,24.6,20.4
		C15514.1,3922,15504,3929.9,15489.5,3929.9z M15468.3,4062v-123.2h42.2V4062H15468.3z"/>
	<path class="st5" d="M15608.7,4062v-69.9c0-16-5.4-20.2-14.1-20.2c-8.9,0-14.3,4.2-14.3,19.7v70.4h-42.2v-123.2h42.2v8.2
		c7.7-5.9,16.4-10.8,31-10.8c27,0,39.9,18.1,39.9,50.5v75.3H15608.7z"/>
	<path class="st5" d="M15720.1,4107.3l-15.5-24.4c30-4.9,37.3-9.6,37.3-26.5v-4.2c-8.2,6.6-16.2,11.3-29.1,11.3
		c-23,0-40.8-16.9-40.8-62.7c0-44.1,15.7-64.5,42.5-64.5c12.4,0,20.7,5.6,27.5,10.8v-8.2h42.5v104.7
		C15784.4,4085.8,15764.7,4101,15720.1,4107.3z M15742,3976.9c-4.2-3.5-8.4-5.9-15-5.9c-8.7,0-13.4,5.4-13.4,28.4
		c0,24.6,4.7,30.5,13.6,30.5c6.1,0,10.6-2.3,14.8-5.9V3976.9z"/>
</g>
<g class="st44">
	<path class="st5" d="M16338.5,4952l55.4-26.8v-18.3h-55.4v-44.8h164.3v73.5c0,38.5-14.6,64.1-53.5,64.1
		c-24.6,0-39.9-11.5-48.1-29.6l-62.7,32.9V4952z M16465.6,4934.4v-27.5h-35.9v26.8c0,14.8,6.6,20.7,18.3,20.7
		C16458.4,4954.3,16465.6,4948.7,16465.6,4934.4z"/>
	<path class="st5" d="M16388,5126.6v-72.3c-13.6,1.4-19.7,9.4-19.7,20.9c0,10.8,2.3,19.7,8.7,31.9l-27,16.2
		c-8.9-15.3-14.1-31-14.1-50.2c0-37.1,26.3-57.5,64.1-57.5c42.5,0,64.3,23.9,64.3,56.3c0,33.8-22.3,54.9-68.1,54.9
		C16392.7,5126.8,16390.1,5126.8,16388,5126.6z M16433,5070.8c0-9.6-6.6-15-18.8-16.4v35.2
		C16426.7,5087.4,16433,5083.2,16433,5070.8z"/>
	<path class="st5" d="M16335.9,5194.2c0-18.1,4-35.7,10.1-51.4l31.9,9.9c-6.6,14.8-10.8,31.7-10.8,42.5c0,8.2,1.9,11.3,5.6,11.3
		c4,0,5.6-1.9,7.7-9.9c10.1-38,17.8-51.2,43.4-51.2c25.3,0,40.4,16.7,40.4,50.2c0,18.5-3.1,31-8.9,47.4l-32.6-9.4
		c7-16.2,10.3-28.4,10.3-39.2c0-8.2-1.6-10.3-5.4-10.3c-3.8,0-5.2,1.4-8.4,12.2c-9.2,34.7-17.4,48.8-41.8,48.8
		C16349,5245.1,16335.9,5225.6,16335.9,5194.2z"/>
	<path class="st5" d="M16335.9,5338.3c0-12.2,5.6-20.7,10.8-27.5h-36.6l-16.9-42.2h168.5v42.2h-8.7c6.6,8.4,11.3,16.2,11.3,29.1
		c0,23.2-18.1,41.1-63.8,41.1C16356.3,5381,16335.9,5365.3,16335.9,5338.3z M16429.5,5325.8c0-6.1-2.3-10.6-5.9-15h-47.2
		c-3.5,4.5-5.9,8.7-5.9,15.3c0,8.7,5.4,13.1,28.4,13.1C16423.6,5339.2,16429.5,5334.8,16429.5,5325.8z"/>
	<path class="st5" d="M16335.9,5456.3c0-34,21.8-58.4,64.3-58.4c42.9,0,64.1,24.4,64.1,58.4s-21.1,58.7-64.1,58.7
		C16357.7,5515,16335.9,5490.3,16335.9,5456.3z M16430,5456.3c0-11-8.9-16.7-29.8-16.7c-20.4,0-30,5.6-30,16.7s9.6,16.7,30,16.7
		C16421.1,5473,16430,5467.3,16430,5456.3z"/>
	<path class="st5" d="M16338.5,5607h69.9c16,0,20.2-5.4,20.2-14.1c0-8.9-4.2-14.3-19.7-14.3h-70.4v-42.2h123.2v42.2h-8.2
		c5.9,7.7,10.8,16.4,10.8,31c0,27-18.1,39.9-50.5,39.9h-75.3V5607z"/>
	<path class="st5" d="M16335.9,5723.1c0-18.1,4-35.7,10.1-51.4l31.9,9.9c-6.6,14.8-10.8,31.7-10.8,42.5c0,8.2,1.9,11.3,5.6,11.3
		c4,0,5.6-1.9,7.7-9.9c10.1-38,17.8-51.2,43.4-51.2c25.3,0,40.4,16.7,40.4,50.2c0,18.5-3.1,31-8.9,47.4l-32.6-9.4
		c7-16.2,10.3-28.4,10.3-39.2c0-8.2-1.6-10.3-5.4-10.3c-3.8,0-5.2,1.4-8.4,12.2c-9.2,34.7-17.4,48.8-41.8,48.8
		C16349,5774,16335.9,5754.6,16335.9,5723.1z"/>
	<path class="st5" d="M16388,5901.2V5829c-13.6,1.4-19.7,9.4-19.7,20.9c0,10.8,2.3,19.7,8.7,31.9l-27,16.2
		c-8.9-15.3-14.1-31-14.1-50.2c0-37.1,26.3-57.5,64.1-57.5c42.5,0,64.3,23.9,64.3,56.3c0,33.8-22.3,54.9-68.1,54.9
		C16392.7,5901.5,16390.1,5901.5,16388,5901.2z M16433,5845.4c0-9.6-6.6-15-18.8-16.4v35.2C16426.7,5862,16433,5857.8,16433,5845.4z
		"/>
</g>
<g class="st44">
	<path class="st5" d="M13173.4,6408.5l-55.4,26.8v18.3h55.4v44.8h-164.3v-73.5c0-38.5,14.6-64.1,53.5-64.1
		c24.6,0,39.9,11.5,48.1,29.6l62.7-32.9V6408.5z M13046.2,6426.1v27.5h35.9v-26.8c0-14.8-6.6-20.7-18.3-20.7
		C13053.5,6406.1,13046.2,6411.8,13046.2,6426.1z"/>
	<path class="st5" d="M13123.9,6233.9v72.3c13.6-1.4,19.7-9.4,19.7-20.9c0-10.8-2.3-19.7-8.7-31.9l27-16.2
		c8.9,15.3,14.1,31,14.1,50.2c0,37.1-26.3,57.5-64.1,57.5c-42.5,0-64.3-23.9-64.3-56.3c0-33.8,22.3-54.9,68.1-54.9
		C13119.2,6233.6,13121.8,6233.6,13123.9,6233.9z M13078.8,6289.7c0,9.6,6.6,15,18.8,16.4v-35.2
		C13085.2,6273.1,13078.8,6277.3,13078.8,6289.7z"/>
	<path class="st5" d="M13218.7,6146.8h-54c6.6,8.2,11.3,16.2,11.3,29.1c0,23-18.1,40.8-63.8,40.8c-44.1,0-64.5-15.7-64.5-42.5
		c0-12.4,5.6-20.7,10.8-27.5h-8.2v-42.5h151.6L13218.7,6146.8z M13088.2,6146.8c-3.5,4.2-5.9,8.4-5.9,15c0,8.7,5.4,13.4,28.4,13.4
		c24.6,0,30.5-4.7,30.5-13.6c0-6.1-2.3-10.6-5.9-14.8H13088.2z"/>
	<path class="st5" d="M13173.4,6008.4h-8.2c5.9,7.5,10.8,16.4,10.8,30.7c0,27-18.1,39.9-50.5,39.9h-75.3v-42.5h69.9
		c16,0,20.2-5.4,20.2-14.1s-4.2-14.1-19.7-14.1h-70.4v-42.5h123.2V6008.4z"/>
	<path class="st5" d="M13123.9,5833.5v72.3c13.6-1.4,19.7-9.4,19.7-20.9c0-10.8-2.3-19.7-8.7-31.9l27-16.2
		c8.9,15.3,14.1,31,14.1,50.2c0,37.1-26.3,57.5-64.1,57.5c-42.5,0-64.3-23.9-64.3-56.3c0-33.8,22.3-54.9,68.1-54.9
		C13119.2,5833.3,13121.8,5833.3,13123.9,5833.5z M13078.8,5889.4c0,9.6,6.6,15,18.8,16.4v-35.2
		C13085.2,5872.7,13078.8,5876.9,13078.8,5889.4z"/>
	<path class="st5" d="M13176,5765.9c0,18.1-4,35.7-10.1,51.4l-31.9-9.9c6.6-14.8,10.8-31.7,10.8-42.5c0-8.2-1.9-11.3-5.6-11.3
		c-4,0-5.6,1.9-7.7,9.9c-10.1,38-17.8,51.2-43.4,51.2c-25.3,0-40.4-16.7-40.4-50.2c0-18.5,3.1-31,8.9-47.4l32.6,9.4
		c-7,16.2-10.3,28.4-10.3,39.2c0,8.2,1.6,10.3,5.4,10.3c3.8,0,5.2-1.4,8.4-12.2c9.2-34.7,17.4-48.8,41.8-48.8
		C13162.8,5715,13176,5734.5,13176,5765.9z"/>
	<path class="st5" d="M13169.4,5618.3c4,8.2,6.6,18.5,6.6,30.5c0,22.3-11.3,32.6-39.2,32.6h-53.5v18.8h-33.1v-18.8h-31.2l-16.7-41.1
		h47.9v-26.8h33.1v26.8h44.6c9.4,0,12.2-3.5,12.2-10.6c0-5.6-2.1-10.3-6.6-16.9L13169.4,5618.3z"/>
</g>
<g class="st44">
	<path class="st4" d="M8037.7-6265.9c-12.5-24-32.6-38.1-64.1-38.1c-52.6,0-82.7,46.1-82.7,111.2c0,63.1,30.6,111.2,83.2,111.2
		c31.6,0,50.1-13.5,68.6-44.6l59.1,35.1c-24,49.6-66.1,79.2-129.8,79.2c-91.7,0-153.3-70.1-153.3-180.9
		c0-106.7,64.1-180.9,155.8-180.9c66.1,0,106.2,32.1,128.2,77.7L8037.7-6265.9z"/>
	<path class="st4" d="M8294.7-6011.9c-95.7,0-152.3-74.1-152.3-180.9s56.6-180.9,152.3-180.9c95.7,0,152.3,74.1,152.3,180.9
		S8390.4-6011.9,8294.7-6011.9z M8294.7-6304c-56.6,0-80.2,48.6-80.2,111.2s23.5,111.2,80.2,111.2c56.6,0,80.2-48.6,80.2-111.2
		S8351.3-6304,8294.7-6304z"/>
	<path class="st4" d="M8740.1-6017.5l-128.8-191.4c-8.5-13-20-30.6-24.5-39.6c0,13,1,57.1,1,76.6v154.3h-69.1v-350.7h67.1
		l124.2,185.4c8.5,13,20,30.6,24.5,39.6c0-13-1-57.1-1-76.6v-148.3h69.1v350.7H8740.1z"/>
	<path class="st4" d="M9041.2-6299v281.5H8971V-6299h-100.7v-69.1h271.5v69.1H9041.2z"/>
	<path class="st4" d="M9214.5-6017.5v-350.7h70.1v350.7H9214.5z"/>
	<path class="st4" d="M9601.2-6017.5l-128.8-191.4c-8.5-13-20-30.6-24.5-39.6c0,13,1,57.1,1,76.6v154.3h-69.1v-350.7h67.1
		l124.2,185.4c8.5,13,20,30.6,24.5,39.6c0-13-1-57.1-1-76.6v-148.3h69.1v350.7H9601.2z"/>
	<path class="st4" d="M9893.3-6011.9c-84.7,0-141.8-57.1-141.8-159.3v-196.9h70.1v195.9c0,56.1,27.1,91.7,71.6,91.7
		c44.6,0,72.1-34.6,72.1-90.7v-196.9h70.1v195.9C10035.6-6070.6,9982.5-6011.9,9893.3-6011.9z"/>
	<path class="st4" d="M10257-6011.9c-95.7,0-152.3-74.1-152.3-180.9s56.6-180.9,152.3-180.9c95.7,0,152.3,74.1,152.3,180.9
		S10352.7-6011.9,10257-6011.9z M10257-6304c-56.6,0-80.2,48.6-80.2,111.2s23.5,111.2,80.2,111.2c56.6,0,80.2-48.6,80.2-111.2
		S10313.6-6304,10257-6304z"/>
	<path class="st4" d="M10620.2-6011.9c-84.7,0-141.8-57.1-141.8-159.3v-196.9h70.1v195.9c0,56.1,27.1,91.7,71.6,91.7
		c44.6,0,72.1-34.6,72.1-90.7v-196.9h70.1v195.9C10762.5-6070.6,10709.4-6011.9,10620.2-6011.9z"/>
	<path class="st4" d="M10969.4-6011.9c-58.6,0-109.7-24.5-136.3-63.6l50.6-45.1c24.5,28.6,56.1,40.1,89.7,40.1
		c41.6,0,61.1-11.5,61.1-38.1c0-22.5-12-32.6-78.2-47.6c-64.6-15-109.7-35.6-109.7-104.7c0-63.6,56.1-102.7,125.2-102.7
		c54.6,0,94.7,20.5,127.7,55.1l-50.6,49.1c-22.5-23-47.6-36.1-79.7-36.1c-37.6,0-50.1,16-50.1,31.6c0,22,15,29.1,70.6,42.1
		c55.6,13,117.2,32.1,117.2,108.2C11107.2-6057,11065.1-6011.9,10969.4-6011.9z"/>
	<path class="st4" d="M11474.9-6299v281.5h-70.1V-6299H11304v-69.1h271.5v69.1H11474.9z"/>
	<path class="st4" d="M11846.6-6017.5l-62.6-126.2h-70.6v126.2h-70.1v-350.7h163.3c66.1,0,120.7,36.6,120.7,111.2
		c0,52.6-22.5,85.7-67.1,103.2l67.1,136.3H11846.6z M11805-6300h-91.7v90.2h91.7c32.6,0,50.1-15,50.1-45.6
		C11855.1-6287,11836.1-6300,11805-6300z"/>
	<path class="st4" d="M12226.9-6017.5l-27.6-78.2h-128.2l-27.6,78.2h-75.1l134.3-350.7h68.1l133.3,350.7H12226.9z M12152.7-6225.9
		c-7-20.5-14-41.6-17.5-54.6c-3.5,13-10.5,34.1-17.5,54.6l-22.5,63.6h80.2L12152.7-6225.9z"/>
	<path class="st4" d="M12374.1-6017.5v-350.7h70.1v350.7H12374.1z"/>
	<path class="st4" d="M12760.9-6017.5l-128.8-191.4c-8.5-13-20-30.6-24.5-39.6c0,13,1,57.1,1,76.6v154.3h-69.1v-350.7h67.1
		l124.2,185.4c8.5,13,20,30.6,24.5,39.6c0-13-1-57.1-1-76.6v-148.3h69.1v350.7H12760.9z"/>
	<path class="st4" d="M12918.7-6017.5v-350.7h70.1v350.7H12918.7z"/>
	<path class="st4" d="M13305.4-6017.5l-128.8-191.4c-8.5-13-20-30.6-24.5-39.6c0,13,1,57.1,1,76.6v154.3h-69.1v-350.7h67.1
		l124.2,185.4c8.5,13,20,30.6,24.5,39.6c0-13-1-57.1-1-76.6v-148.3h69.1v350.7H13305.4z"/>
	<path class="st4" d="M13593-6011.9c-91.7,0-153.3-70.1-153.3-180.9c0-106.7,64.1-180.9,155.8-180.9c71.6,0,109.7,33.6,132.8,87.7
		l-66.6,27.6c-13-26.1-29.1-45.6-67.1-45.6c-52.6,0-82.7,46.1-82.7,111.2c0,64.6,30.6,112.2,83.2,112.2c48.1,0,64.6-22.5,68.6-53.1
		h-55.6v-65.6h125.7v46.1C13733.8-6063,13674.2-6011.9,13593-6011.9z"/>
	<path class="st4" d="M14100.5-6141.7h-77.2v124.2h-70.1v-350.7h153.3c66.1,0,120.7,36.6,120.7,111.2
		C14227.2-6175.8,14173.1-6141.7,14100.5-6141.7z M14104-6300h-80.7v90.2h81.7c32.6,0,50.1-15,50.1-45.6S14135.1-6300,14104-6300z"
		/>
	<path class="st4" d="M14298.9-6017.5v-350.7h70.1v350.7H14298.9z"/>
	<path class="st4" d="M14611.5-6141.7h-77.2v124.2h-70.1v-350.7h153.3c66.1,0,120.7,36.6,120.7,111.2
		C14738.2-6175.8,14684.1-6141.7,14611.5-6141.7z M14615-6300h-80.7v90.2h81.7c32.6,0,50.1-15,50.1-45.6S14646-6300,14615-6300z"/>
	<path class="st4" d="M14804.8-6017.5v-350.7h243.5v68.6H14875v60.6h100.7v68.1H14875v84.7h180.9v68.6H14804.8z"/>
	<path class="st4" d="M15130.5-6017.5v-350.7h70.1v281.5h175.8v69.1H15130.5z"/>
	<path class="st4" d="M15446.1-6017.5v-350.7h70.1v350.7H15446.1z"/>
	<path class="st4" d="M15832.8-6017.5l-128.8-191.4c-8.5-13-20-30.6-24.5-39.6c0,13,1,57.1,1,76.6v154.3h-69.1v-350.7h67.1
		l124.2,185.4c8.5,13,20,30.6,24.5,39.6c0-13-1-57.1-1-76.6v-148.3h69.1v350.7H15832.8z"/>
	<path class="st4" d="M15985.6-6017.5v-350.7h243.5v68.6h-173.3v60.6h100.7v68.1h-100.7v84.7h180.9v68.6H15985.6z"/>
</g>
<g class="st44">
	<path class="st4" d="M9158.9,889.3c-58.6,0-109.7-24.5-136.3-63.6l50.6-45.1c24.5,28.6,56.1,40.1,89.7,40.1
		c41.6,0,61.1-11.5,61.1-38.1c0-22.5-12-32.6-78.2-47.6c-64.6-15-109.7-35.6-109.7-104.7c0-63.6,56.1-102.7,125.2-102.7
		c54.6,0,94.7,20.5,127.7,55.1l-50.6,49.1c-22.5-23-47.6-36.1-79.7-36.1c-37.6,0-50.1,16-50.1,31.6c0,22,15,29.1,70.6,42.1
		c55.6,13,117.2,32.1,117.2,108.2C9296.6,844.2,9254.6,889.3,9158.9,889.3z"/>
	<path class="st4" d="M9370.8,883.7V533.1h243.5v68.6h-173.3v60.6h100.7v68.1h-100.7v84.7h180.9v68.6H9370.8z"/>
	<path class="st4" d="M9899.8,883.7l-62.6-126.2h-70.6v126.2h-70.1V533.1h163.3c66.1,0,120.7,36.6,120.7,111.2
		c0,52.6-22.5,85.7-67.1,103.2l67.1,136.3H9899.8z M9858.2,601.2h-91.7v90.2h91.7c32.6,0,50.1-15,50.1-45.6
		C9908.3,614.2,9889.3,601.2,9858.2,601.2z"/>
	<path class="st4" d="M10207.9,883.7h-68.1L10015,533.1h77.7l66.1,202.9c6.5,19.5,13.5,45.1,16.5,57.6c3-13,9.5-37.1,16-57.6
		l64.6-202.9h76.7L10207.9,883.7z"/>
	<path class="st4" d="M10402.7,883.7V533.1h70.1v350.7H10402.7z"/>
	<path class="st4" d="M10789.5,883.7l-128.8-191.4c-8.5-13-20-30.6-24.5-39.6c0,13,1,57.1,1,76.6v154.3h-69.1V533.1h67.1
		l124.2,185.4c8.5,13,20,30.6,24.5,39.6c0-13-1-57.1-1-76.6V533.1h69.1v350.7H10789.5z"/>
	<path class="st4" d="M11077,889.3c-91.7,0-153.3-70.1-153.3-180.9c0-106.7,64.1-180.9,155.8-180.9c71.6,0,109.7,33.6,132.8,87.7
		l-66.6,27.6c-13-26.1-29.1-45.6-67.1-45.6c-52.6,0-82.7,46.1-82.7,111.2c0,64.6,30.6,112.2,83.2,112.2c48.1,0,64.6-22.5,68.6-53.1
		h-55.6v-65.6h125.7V748C11217.8,838.2,11158.2,889.3,11077,889.3z"/>
</g>
<rect x="13115.3" y="6863.3" class="st0" width="3298.2" height="358.6"/>
<g class="st44">
	<path class="st5" d="M14416.6,7122.4c-48.8,0-74.9-36.1-74.9-84.7c0-52.8,31-84.7,75.1-84.7c40.4,0,56.3,17.4,67.6,48.3l-41.3,16.2
		c-5.9-15.3-11.5-24.9-26.5-24.9c-19,0-27.2,19-27.2,45.1c0,25.1,8,45.1,27.7,45.1c14.3,0,20.4-7.7,29.3-23.2l38.5,20.4
		C14473.9,7101.5,14455.6,7122.4,14416.6,7122.4z"/>
	<path class="st5" d="M14507.2,7119.9v-154.2l42.2-16.9v171.1H14507.2z"/>
	<path class="st5" d="M14599.2,6987.7c-13.8,0-24.2-8-24.2-20.9c0-12,10.3-20.4,24.2-20.4c14.5,0,24.6,8.4,24.6,20.4
		C14623.8,6979.8,14613.7,6987.7,14599.2,6987.7z M14578.1,7119.9v-123.2h42.2v123.2H14578.1z"/>
	<path class="st5" d="M14753.8,7070.3h-72.3c1.4,13.6,9.4,19.7,20.9,19.7c10.8,0,19.7-2.3,31.9-8.7l16.2,27
		c-15.3,8.9-31,14.1-50.2,14.1c-37.1,0-57.5-26.3-57.5-64.1c0-42.5,23.9-64.3,56.3-64.3c33.8,0,54.9,22.3,54.9,68.1
		C14754,7065.6,14754,7068.2,14753.8,7070.3z M14698,7025.3c-9.6,0-15,6.6-16.4,18.8h35.2
		C14714.6,7031.6,14710.4,7025.3,14698,7025.3z"/>
	<path class="st5" d="M14846,7119.9v-69.9c0-16-5.4-20.2-14.1-20.2c-8.9,0-14.3,4.2-14.3,19.7v70.4h-42.2v-123.2h42.2v8.2
		c7.7-5.9,16.4-10.8,31-10.8c27,0,39.9,18.1,39.9,50.5v75.3H14846z"/>
	<path class="st5" d="M14988.3,7115.9c-8.2,4-18.5,6.6-30.5,6.6c-22.3,0-32.6-11.3-32.6-39.2v-53.5h-18.8v-33.1h18.8v-31.2
		l41.1-16.7v47.9h26.8v33.1h-26.8v44.6c0,9.4,3.5,12.2,10.6,12.2c5.6,0,10.3-2.1,16.9-6.6L14988.3,7115.9z"/>
	<path class="st5" d="M15065,7122.4c-18.1,0-35.7-4-51.4-10.1l9.9-31.9c14.8,6.6,31.7,10.8,42.5,10.8c8.2,0,11.3-1.9,11.3-5.6
		c0-4-1.9-5.6-9.9-7.7c-38-10.1-51.2-17.8-51.2-43.4c0-25.3,16.7-40.4,50.2-40.4c18.5,0,31,3.1,47.4,8.9l-9.4,32.6
		c-16.2-7-28.4-10.3-39.2-10.3c-8.2,0-10.3,1.6-10.3,5.4s1.4,5.2,12.2,8.4c34.7,9.2,48.8,17.4,48.8,41.8
		C15115.9,7109.3,15096.4,7122.4,15065,7122.4z"/>
</g>
<g class="st44">
	<path class="st5" d="M13991.2-2610v-39.2c0-16.2,0.2-31,0.9-43.6c-4.9,12.2-13.4,31.2-19,42.9l-21.6,45.5l-21.6-45.5
		c-5.6-11.7-14.1-30.7-19-42.9c0.7,12.7,0.9,27.5,0.9,43.6v39.2h-42.7v-164.3h41.8l20.2,43.9c9.9,21.1,18.1,40.4,20.7,49.5
		c2.8-9.4,10.3-27.2,20.7-49.5l20.2-43.9h41.3v164.3H13991.2z"/>
	<path class="st5" d="M14117.3-2607.4c-34,0-58.4-21.8-58.4-64.3c0-42.9,24.4-64.1,58.4-64.1s58.7,21.1,58.7,64.1
		C14175.9-2629.3,14151.3-2607.4,14117.3-2607.4z M14117.3-2701.5c-11,0-16.7,8.9-16.7,29.8c0,20.4,5.6,30,16.7,30s16.7-9.6,16.7-30
		C14133.9-2692.6,14128.3-2701.5,14117.3-2701.5z"/>
	<path class="st5" d="M14262.7-2610v-8.7c-8.2,6.6-16.2,11.3-29.1,11.3c-23,0-40.8-18.1-40.8-63.8c0-44.1,15.7-64.5,42.5-64.5
		c12.4,0,20.7,5.6,27.5,10.8v-39.2l42.5-16.9v171.1H14262.7z M14262.7-2695.2c-4.2-3.5-8.4-5.9-15-5.9c-8.7,0-13.4,5.4-13.4,28.4
		c0,24.6,4.7,30.5,13.6,30.5c6.1,0,10.6-2.3,14.8-5.9V-2695.2z"/>
	<path class="st5" d="M14437.6-2659.5h-72.3c1.4,13.6,9.4,19.7,20.9,19.7c10.8,0,19.7-2.3,31.9-8.7l16.2,27
		c-15.3,8.9-31,14.1-50.2,14.1c-37.1,0-57.5-26.3-57.5-64.1c0-42.5,23.9-64.3,56.3-64.3c33.8,0,54.9,22.3,54.9,68.1
		C14437.8-2664.2,14437.8-2661.6,14437.6-2659.5z M14381.7-2704.6c-9.6,0-15,6.6-16.4,18.8h35.2
		C14398.4-2698.2,14394.2-2704.6,14381.7-2704.6z"/>
	<path class="st5" d="M14460.3-2610v-154.2l42.2-16.9v171.1H14460.3z"/>
	<path class="st5" d="M14606.8-2610c1.4-55.4,27.5-82.1,68.5-100.4c17.4-7.7,19.9-10.3,19.9-16.9c0-7.3-5.2-11.3-18.3-11.3
		c-16.4,0-32.4,5.6-48.8,16.7l-20.9-33.6c20.9-13.4,42.2-21.4,70.4-21.4c40.8,0,62.2,16.4,62.2,46.2c0,21.6-7.5,34.7-39,49.3
		c-32.9,15.3-42,24.4-45.5,34.3h85.7v37.1H14606.8z"/>
</g>
<g class="st44">
	<path class="st5" d="M16466.7-2610v-39.2c0-16.2,0.2-31,0.9-43.6c-4.9,12.2-13.4,31.2-19,42.9l-21.6,45.5l-21.6-45.5
		c-5.6-11.7-14.1-30.7-19-42.9c0.7,12.7,0.9,27.5,0.9,43.6v39.2h-42.7v-164.3h41.8l20.2,43.9c9.9,21.1,18.1,40.4,20.7,49.5
		c2.8-9.4,10.3-27.2,20.7-49.5l20.2-43.9h41.3v164.3H16466.7z"/>
	<path class="st5" d="M16592.7-2607.4c-34,0-58.4-21.8-58.4-64.3c0-42.9,24.4-64.1,58.4-64.1c34,0,58.7,21.1,58.7,64.1
		C16651.4-2629.3,16626.7-2607.4,16592.7-2607.4z M16592.7-2701.5c-11,0-16.7,8.9-16.7,29.8c0,20.4,5.6,30,16.7,30
		c11,0,16.7-9.6,16.7-30C16609.4-2692.6,16603.7-2701.5,16592.7-2701.5z"/>
	<path class="st5" d="M16738.2-2610v-8.7c-8.2,6.6-16.2,11.3-29.1,11.3c-23,0-40.8-18.1-40.8-63.8c0-44.1,15.7-64.5,42.5-64.5
		c12.4,0,20.7,5.6,27.5,10.8v-39.2l42.5-16.9v171.1H16738.2z M16738.2-2695.2c-4.2-3.5-8.4-5.9-15-5.9c-8.7,0-13.4,5.4-13.4,28.4
		c0,24.6,4.7,30.5,13.6,30.5c6.1,0,10.6-2.3,14.8-5.9V-2695.2z"/>
	<path class="st5" d="M16913-2659.5h-72.3c1.4,13.6,9.4,19.7,20.9,19.7c10.8,0,19.7-2.3,31.9-8.7l16.2,27
		c-15.3,8.9-31,14.1-50.2,14.1c-37.1,0-57.5-26.3-57.5-64.1c0-42.5,23.9-64.3,56.3-64.3c33.8,0,54.9,22.3,54.9,68.1
		C16913.2-2664.2,16913.2-2661.6,16913-2659.5z M16857.2-2704.6c-9.6,0-15,6.6-16.4,18.8h35.2
		C16873.8-2698.2,16869.6-2704.6,16857.2-2704.6z"/>
	<path class="st5" d="M16935.8-2610v-154.2l42.2-16.9v171.1H16935.8z"/>
	<path class="st5" d="M17106.8-2610v-113.1h-27.7v-28.9c21.1-1.2,29.6-7,34.3-22.3h38v164.3H17106.8z"/>
</g>
<g class="st44">
	<path class="st5" d="M8625.4,4062v-39.2c0-16.2,0.2-31,0.9-43.6c-4.9,12.2-13.4,31.2-19,42.9l-21.6,45.5l-21.6-45.5
		c-5.6-11.7-14.1-30.7-19-42.9c0.7,12.7,0.9,27.5,0.9,43.6v39.2h-42.7v-164.3h41.8l20.2,43.9c9.9,21.1,18.1,40.4,20.7,49.5
		c2.8-9.4,10.3-27.2,20.7-49.5l20.2-43.9h41.3V4062H8625.4z"/>
	<path class="st5" d="M8751.4,4064.6c-34,0-58.4-21.8-58.4-64.3c0-42.9,24.4-64.1,58.4-64.1s58.7,21.1,58.7,64.1
		C8810.1,4042.8,8785.4,4064.6,8751.4,4064.6z M8751.4,3970.5c-11,0-16.7,8.9-16.7,29.8c0,20.4,5.6,30,16.7,30s16.7-9.6,16.7-30
		C8768.1,3979.4,8762.4,3970.5,8751.4,3970.5z"/>
	<path class="st5" d="M8896.9,4062v-8.7c-8.2,6.6-16.2,11.3-29.1,11.3c-23,0-40.8-18.1-40.8-63.8c0-44.1,15.7-64.5,42.5-64.5
		c12.4,0,20.7,5.6,27.5,10.8v-39.2l42.5-16.9V4062H8896.9z M8896.9,3976.9c-4.2-3.5-8.4-5.9-15-5.9c-8.7,0-13.4,5.4-13.4,28.4
		c0,24.6,4.7,30.5,13.6,30.5c6.1,0,10.6-2.3,14.8-5.9V3976.9z"/>
	<path class="st5" d="M9071.7,4012.5h-72.3c1.4,13.6,9.4,19.7,20.9,19.7c10.8,0,19.7-2.3,31.9-8.7l16.2,27
		c-15.3,8.9-31,14.1-50.2,14.1c-37.1,0-57.5-26.3-57.5-64.1c0-42.5,23.9-64.3,56.3-64.3c33.8,0,54.9,22.3,54.9,68.1
		C9072,4007.8,9072,4010.4,9071.7,4012.5z M9015.9,3967.5c-9.6,0-15,6.6-16.4,18.8h35.2C9032.5,3973.8,9028.3,3967.5,9015.9,3967.5z
		"/>
	<path class="st5" d="M9094.5,4062v-154.2l42.2-16.9V4062H9094.5z"/>
	<path class="st5" d="M9240.9,4062c1.4-55.4,27.5-82.1,68.5-100.4c17.4-7.7,19.9-10.3,19.9-16.9c0-7.3-5.2-11.3-18.3-11.3
		c-16.4,0-32.4,5.6-48.8,16.7l-20.9-33.6c20.9-13.4,42.2-21.4,70.4-21.4c40.8,0,62.2,16.4,62.2,46.2c0,21.6-7.5,34.7-39,49.3
		c-32.9,15.3-42,24.4-45.5,34.3h85.7v37.1H9240.9z"/>
</g>
<linearGradient id="SVGID_38_" gradientUnits="userSpaceOnUse" x1="10352.0996" y1="-1981.0005" x2="11307" y2="-1981.0005" gradientTransform="matrix(1 0 0 -1 0 791.1992)">
	<stop  offset="4.166670e-03" style="stop-color:#D0D2D3"/>
	<stop  offset="0.1806" style="stop-color:#E3E4E4"/>
	<stop  offset="0.4042" style="stop-color:#F3F3F3"/>
	<stop  offset="0.6572" style="stop-color:#FCFCFC"/>
	<stop  offset="1" style="stop-color:#FFFFFF"/>
</linearGradient>
<polygon class="st48" points="10352.1,1942.1 10352.1,3046.7 10352.3,3046.8 11306.9,3602.3 11306.9,3602.3 11307,3602.3 
	11307,2497.8 11306.9,2497.8 10352.1,1942.1 "/>
<linearGradient id="SVGID_39_" gradientUnits="userSpaceOnUse" x1="10912.3867" y1="-767.5146" x2="11846.0137" y2="-1357.1758" gradientTransform="matrix(1 0 0 -1 0 791.1992)">
	<stop  offset="4.166670e-03" style="stop-color:#D0D2D3"/>
	<stop  offset="0.1806" style="stop-color:#E3E4E4"/>
	<stop  offset="0.4042" style="stop-color:#F3F3F3"/>
	<stop  offset="0.6572" style="stop-color:#FCFCFC"/>
	<stop  offset="1" style="stop-color:#FFFFFF"/>
</linearGradient>
<polygon class="st49" points="11449.4,2450.2 11449.4,2450.2 11449.5,2450.2 11449.8,2450 12404.1,1901.2 11449.8,1345.8 
	11449.3,1345.6 11449.3,1345.6 11449.3,1345.6 11449.3,1345.5 11449.3,1345.6 10494.6,1894.5 "/>
<polygon class="st5" points="11449.4,2383.8 11449.4,2383.7 11449.5,2383.8 11449.8,2383.6 12404.1,1834.7 11449.8,1279.4 
	11449.3,1279.1 11449.3,1279.1 11449.3,1279.1 11449.3,1279.1 11449.3,1279.1 10494.6,1828.1 "/>
<polygon class="st19" points="10418.5,1913.6 10418.5,3018.2 10418.7,3018.3 11373.4,3573.8 11373.4,3573.8 11373.4,3573.8 
	11373.4,2469.3 11373.4,2469.3 10418.6,1913.6 10418.6,1913.6 "/>
<linearGradient id="SVGID_40_" gradientUnits="userSpaceOnUse" x1="11926.9502" y1="-2372.5156" x2="11926.9502" y2="-1290.7715" gradientTransform="matrix(1 0 0 -1 0 791.1992)">
	<stop  offset="4.166670e-03" style="stop-color:#D0D2D3"/>
	<stop  offset="0.1806" style="stop-color:#E3E4E4"/>
	<stop  offset="0.4042" style="stop-color:#F3F3F3"/>
	<stop  offset="0.6572" style="stop-color:#FCFCFC"/>
	<stop  offset="1" style="stop-color:#FFFFFF"/>
</linearGradient>
<polygon class="st50" points="11449.8,3573.8 12404.1,3025 12404.1,3024.9 12404.1,3024.9 12404.1,3024.7 12404.1,1920.2 
	12404.1,1920.3 12404.1,1920.2 11449.8,2469 11449.8,2469.4 11449.8,3573.8 11449.8,3573.7 "/>
<polygon class="st21" points="12470.5,1920.2 11516.2,2469 11516.2,3573.8 12470.5,3024.9 "/>
<g class="st44">
	<path class="st5" d="M11163.1,4062v-39.2c0-16.2,0.2-31,0.9-43.6c-4.9,12.2-13.4,31.2-19,42.9l-21.6,45.5l-21.6-45.5
		c-5.6-11.7-14.1-30.7-19-42.9c0.7,12.7,0.9,27.5,0.9,43.6v39.2h-42.7v-164.3h41.8l20.2,43.9c9.9,21.1,18.1,40.4,20.7,49.5
		c2.8-9.4,10.3-27.2,20.7-49.5l20.2-43.9h41.3V4062H11163.1z"/>
	<path class="st5" d="M11289.1,4064.6c-34,0-58.4-21.8-58.4-64.3c0-42.9,24.4-64.1,58.4-64.1c34,0,58.7,21.1,58.7,64.1
		C11347.7,4042.8,11323.1,4064.6,11289.1,4064.6z M11289.1,3970.5c-11,0-16.7,8.9-16.7,29.8c0,20.4,5.6,30,16.7,30s16.7-9.6,16.7-30
		C11305.7,3979.4,11300.1,3970.5,11289.1,3970.5z"/>
	<path class="st5" d="M11434.6,4062v-8.7c-8.2,6.6-16.2,11.3-29.1,11.3c-23,0-40.8-18.1-40.8-63.8c0-44.1,15.7-64.5,42.5-64.5
		c12.4,0,20.7,5.6,27.5,10.8v-39.2l42.5-16.9V4062H11434.6z M11434.6,3976.9c-4.2-3.5-8.4-5.9-15-5.9c-8.7,0-13.4,5.4-13.4,28.4
		c0,24.6,4.7,30.5,13.6,30.5c6.1,0,10.6-2.3,14.8-5.9V3976.9z"/>
	<path class="st5" d="M11609.4,4012.5h-72.3c1.4,13.6,9.4,19.7,20.9,19.7c10.8,0,19.7-2.3,31.9-8.7l16.2,27
		c-15.3,8.9-31,14.1-50.2,14.1c-37.1,0-57.5-26.3-57.5-64.1c0-42.5,23.9-64.3,56.3-64.3c33.8,0,54.9,22.3,54.9,68.1
		C11609.6,4007.8,11609.6,4010.4,11609.4,4012.5z M11553.5,3967.5c-9.6,0-15,6.6-16.4,18.8h35.2
		C11570.2,3973.8,11566,3967.5,11553.5,3967.5z"/>
	<path class="st5" d="M11632.2,4062v-154.2l42.2-16.9V4062H11632.2z"/>
	<path class="st5" d="M11803.2,4062v-113.1h-27.7v-28.9c21.1-1.2,29.6-7,34.3-22.3h38V4062H11803.2z"/>
</g>
<linearGradient id="SVGID_41_" gradientUnits="userSpaceOnUse" x1="14478.5127" y1="7944.6958" x2="14754.7451" y2="7770.2324" gradientTransform="matrix(0.9305 -0.3664 -0.3664 -0.9305 -802.1077 8148.8989)">
	<stop  offset="0" style="stop-color:#D53C1F"/>
	<stop  offset="0.5788" style="stop-color:#E84C22"/>
	<stop  offset="1" style="stop-color:#F05323"/>
</linearGradient>
<polygon class="st51" points="10003.5,-4361.4 10003.5,-4361.4 10003.5,-4361.4 10003.6,-4361.5 10206.8,-4616 9883.9,-4665.5 
	9883.8,-4665.5 9883.8,-4665.5 9883.8,-4665.5 9883.8,-4665.5 9883.8,-4665.5 9680.4,-4410.9 "/>
<polygon class="st6" points="9676.6,-4378.9 9796.3,-4074.9 9796.4,-4074.9 10119.4,-4025.4 10119.4,-4025.4 10119.4,-4025.4 
	9999.7,-4329.5 9999.7,-4329.5 9676.6,-4379 "/>
<path class="st52" d="M14882.4,5798.9v614.5c242.6,0,490.7,0,965.3,0v-614.5H14882.4L14882.4,5798.9z"/>
<path class="st52" d="M15477,5749.8v-709.7h-1393.9v891.1c286.3,0,376.3,0,749.1,0"/>
<line class="st52" x1="14763.2" y1="5945.6" x2="14763.2" y2="6143.1"/>
<line class="st52" x1="14435.5" y1="6176.5" x2="14840.1" y2="6176.5"/>
<path class="st52" d="M13934,5817.4c23.4,0,42.4,19.1,42.4,42.4v551.4c0,23.4-19.1,42.5-42.4,42.5h-316c-23.3,0-42.5-19.1-42.5-42.5
	v-551.4c0-23.3,19.1-42.4,42.5-42.4H13934L13934,5817.4z"/>
<line class="st52" x1="14672.1" y1="5946.4" x2="14672.1" y2="6143.9"/>
<path class="st52" d="M14730.4,6571.9c224.4,0,830.4,0,1269.3,0"/>
<path class="st52" d="M14754.6,6563.3l119.2-143.1L14754.6,6563.3z"/>
<path class="st52" d="M15975.6,6563.3l-119.2-143.1L15975.6,6563.3z"/>
</svg>
